<svg xmlns="http://www.w3.org/2000/svg" width="50" zoomAndPan="magnify"
     viewBox="0 0 37.5 37.499999" height="50" preserveAspectRatio="xMidYMid meet" version="1.0">
  <g clip-path="url(#ead26a7d98)">
    <path fill="#000000"
          d="M 30.214844 10.878906 C 30.214844 7.878906 28.875 5.101562 26.441406 3.058594 C 24.210938 1.179688 21.285156 0.148438 18.203125 0.148438 C 15.578125 0.148438 13 0.925781 10.921875 2.335938 C 9.875 2.707031 8.886719 3.203125 7.996094 3.824219 C 6.21875 5.054688 4.875 6.710938 4.101562 8.578125 C 3.800781 9.3125 4.21875 10.144531 4.984375 10.332031 L 9.996094 11.574219 C 10.273438 11.644531 10.550781 11.609375 10.796875 11.5 L 10.808594 11.496094 C 10.835938 11.480469 10.867188 11.464844 10.894531 11.449219 L 13.484375 10.128906 L 13.480469 10.128906 C 13.757812 10.042969 14.003906 9.863281 14.179688 9.609375 C 14.253906 9.496094 14.34375 9.386719 14.4375 9.28125 C 14.742188 9.234375 15.054688 9.207031 15.371094 9.207031 C 17.738281 9.207031 19.8125 10.652344 19.8125 12.304688 C 19.8125 12.878906 19.5625 13.425781 19.132812 13.898438 C 18.832031 13.949219 18.519531 13.972656 18.203125 13.972656 L 17 13.972656 C 16.738281 13.972656 16.5 14.050781 16.296875 14.183594 L 13.691406 15.492188 C 13.628906 15.519531 13.566406 15.550781 13.507812 15.582031 L 13.496094 15.589844 L 13.5 15.589844 C 13.128906 15.816406 12.882812 16.226562 12.882812 16.695312 L 12.882812 21.738281 C 12.882812 22.453125 13.457031 23.035156 14.167969 23.035156 L 15.371094 23.035156 C 17.738281 23.035156 19.8125 24.480469 19.8125 26.128906 C 19.8125 26.703125 19.5625 27.253906 19.132812 27.726562 C 18.832031 27.773438 18.519531 27.800781 18.203125 27.800781 C 16.496094 27.800781 14.90625 27.042969 14.179688 25.972656 C 13.875 25.53125 13.347656 25.304688 12.828125 25.433594 L 7.816406 26.675781 C 7.679688 26.710938 7.554688 26.765625 7.441406 26.835938 L 4.726562 28.195312 C 4.128906 28.488281 3.835938 29.210938 4.101562 29.855469 C 4.875 31.726562 6.21875 33.378906 7.996094 34.609375 C 10.089844 36.0625 12.707031 36.859375 15.371094 36.859375 C 18.019531 36.859375 20.554688 36.09375 22.632812 34.6875 C 24.03125 34.195312 25.324219 33.464844 26.441406 32.527344 C 28.875 30.480469 30.214844 27.703125 30.214844 24.707031 C 30.214844 22.132812 29.222656 19.71875 27.402344 17.792969 C 29.222656 15.867188 30.214844 13.449219 30.214844 10.878906 Z M 30.214844 10.878906 "
          fill-opacity="1" fill-rule="nonzero"/>
  </g>
  <g clip-path="url(#a7f1eab4d7)">
    <path fill="#000000"
          d="M 15.371094 36.992188 C 12.683594 36.992188 10.035156 36.183594 7.921875 34.71875 C 6.132812 33.476562 4.769531 31.8125 3.984375 29.90625 C 3.699219 29.214844 3.996094 28.414062 4.664062 28.082031 C 4.664062 28.082031 4.667969 28.082031 4.667969 28.078125 L 7.386719 26.71875 C 7.511719 26.640625 7.644531 26.585938 7.785156 26.550781 L 12.800781 25.308594 C 13.363281 25.167969 13.945312 25.402344 14.285156 25.898438 C 15.003906 26.960938 16.582031 27.671875 18.203125 27.671875 C 18.488281 27.671875 18.78125 27.648438 19.070312 27.605469 C 19.472656 27.148438 19.683594 26.636719 19.683594 26.128906 C 19.683594 24.550781 17.667969 23.164062 15.371094 23.164062 L 14.167969 23.164062 C 13.386719 23.164062 12.753906 22.523438 12.753906 21.738281 L 12.753906 16.695312 C 12.753906 16.203125 13 15.75 13.417969 15.488281 C 13.425781 15.484375 13.433594 15.476562 13.441406 15.472656 L 13.449219 15.46875 C 13.511719 15.433594 13.574219 15.402344 13.636719 15.375 L 16.238281 14.070312 C 16.464844 13.921875 16.730469 13.84375 17 13.84375 L 18.203125 13.84375 C 18.488281 13.84375 18.78125 13.824219 19.070312 13.777344 C 19.472656 13.320312 19.683594 12.8125 19.683594 12.304688 C 19.683594 10.722656 17.667969 9.335938 15.371094 9.335938 C 15.082031 9.335938 14.792969 9.359375 14.503906 9.402344 C 14.417969 9.5 14.34375 9.59375 14.285156 9.683594 C 14.101562 9.953125 13.835938 10.152344 13.535156 10.25 L 10.953125 11.566406 C 10.925781 11.582031 10.894531 11.597656 10.863281 11.613281 L 10.855469 11.613281 C 10.851562 11.617188 10.847656 11.621094 10.839844 11.621094 C 10.5625 11.746094 10.257812 11.773438 9.96875 11.699219 L 4.953125 10.460938 C 4.550781 10.359375 4.214844 10.089844 4.027344 9.714844 C 3.84375 9.34375 3.828125 8.910156 3.984375 8.527344 C 4.769531 6.621094 6.132812 4.957031 7.921875 3.71875 C 8.8125 3.101562 9.800781 2.597656 10.863281 2.21875 C 12.960938 0.800781 15.566406 0.0195312 18.203125 0.0195312 C 21.3125 0.0195312 24.269531 1.0625 26.523438 2.957031 C 28.984375 5.027344 30.339844 7.839844 30.339844 10.878906 C 30.339844 12.171875 30.09375 13.433594 29.609375 14.625 C 29.140625 15.777344 28.457031 16.84375 27.582031 17.792969 C 28.457031 18.742188 29.140625 19.804688 29.609375 20.957031 C 30.09375 22.148438 30.339844 23.410156 30.339844 24.707031 C 30.339844 27.742188 28.984375 30.554688 26.523438 32.625 C 25.402344 33.566406 24.113281 34.300781 22.691406 34.804688 C 20.574219 36.234375 18.042969 36.992188 15.371094 36.992188 Z M 4.789062 28.308594 C 4.785156 28.308594 4.785156 28.3125 4.78125 28.3125 C 4.234375 28.582031 3.988281 29.238281 4.222656 29.804688 C 4.988281 31.664062 6.320312 33.289062 8.070312 34.503906 C 10.140625 35.941406 12.734375 36.730469 15.371094 36.730469 C 17.996094 36.730469 20.484375 35.988281 22.5625 34.578125 C 22.570312 34.574219 22.578125 34.570312 22.589844 34.566406 C 23.992188 34.070312 25.257812 33.351562 26.359375 32.425781 C 28.761719 30.40625 30.085938 27.664062 30.085938 24.707031 C 30.085938 22.160156 29.125 19.800781 27.3125 17.882812 C 27.265625 17.832031 27.265625 17.753906 27.3125 17.703125 C 29.125 15.78125 30.085938 13.421875 30.085938 10.878906 C 30.085938 7.917969 28.761719 5.175781 26.359375 3.15625 C 24.152344 1.300781 21.253906 0.277344 18.203125 0.277344 C 15.609375 0.277344 13.050781 1.046875 10.996094 2.441406 C 10.984375 2.449219 10.976562 2.453125 10.964844 2.457031 C 9.917969 2.828125 8.941406 3.324219 8.070312 3.929688 C 6.320312 5.144531 4.988281 6.769531 4.222656 8.628906 C 4.09375 8.941406 4.105469 9.296875 4.257812 9.601562 C 4.410156 9.90625 4.6875 10.125 5.015625 10.207031 L 10.027344 11.449219 C 10.269531 11.507812 10.515625 11.484375 10.746094 11.378906 C 10.746094 11.378906 10.75 11.378906 10.75 11.378906 C 10.75 11.378906 10.753906 11.378906 10.753906 11.378906 C 10.78125 11.363281 10.804688 11.351562 10.832031 11.335938 C 10.832031 11.335938 10.835938 11.335938 10.835938 11.335938 L 13.414062 10.019531 C 13.425781 10.015625 13.433594 10.007812 13.445312 10.007812 C 13.695312 9.929688 13.917969 9.761719 14.074219 9.535156 C 14.148438 9.425781 14.234375 9.316406 14.34375 9.195312 C 14.363281 9.175781 14.390625 9.160156 14.417969 9.15625 C 14.734375 9.105469 15.054688 9.078125 15.371094 9.078125 C 17.804688 9.078125 19.941406 10.585938 19.941406 12.304688 C 19.941406 12.890625 19.695312 13.472656 19.226562 13.988281 C 19.207031 14.007812 19.183594 14.023438 19.152344 14.027344 C 18.835938 14.078125 18.519531 14.105469 18.203125 14.105469 L 17 14.105469 C 16.773438 14.105469 16.558594 14.167969 16.367188 14.292969 C 16.359375 14.296875 16.351562 14.300781 16.34375 14.304688 L 13.746094 15.609375 C 13.746094 15.609375 13.742188 15.613281 13.738281 15.613281 C 13.683594 15.636719 13.628906 15.664062 13.574219 15.695312 C 13.574219 15.695312 13.570312 15.695312 13.570312 15.699219 C 13.570312 15.699219 13.566406 15.699219 13.566406 15.699219 C 13.21875 15.914062 13.011719 16.285156 13.011719 16.695312 L 13.011719 21.738281 C 13.011719 22.382812 13.527344 22.90625 14.167969 22.90625 L 15.371094 22.90625 C 17.804688 22.90625 19.941406 24.410156 19.941406 26.128906 C 19.941406 26.714844 19.695312 27.296875 19.226562 27.8125 C 19.207031 27.835938 19.183594 27.847656 19.152344 27.855469 C 18.835938 27.90625 18.519531 27.929688 18.203125 27.929688 C 16.5 27.929688 14.839844 27.175781 14.074219 26.046875 C 13.792969 25.636719 13.316406 25.445312 12.859375 25.558594 L 7.847656 26.800781 C 7.730469 26.832031 7.617188 26.878906 7.511719 26.945312 C 7.503906 26.949219 7.496094 26.953125 7.488281 26.957031 Z M 4.789062 28.308594 "
          fill-opacity="1" fill-rule="nonzero"/>
  </g>
  <path fill="#ffffff"
        d="M 4.984375 28.101562 C 4.21875 28.289062 3.800781 29.121094 4.101562 29.855469 C 4.875 31.726562 6.222656 33.378906 7.996094 34.609375 C 10.089844 36.0625 12.707031 36.859375 15.371094 36.859375 C 18.453125 36.859375 21.378906 35.828125 23.609375 33.953125 C 26.042969 31.90625 27.378906 29.128906 27.378906 26.128906 C 27.378906 23.558594 26.390625 21.140625 24.570312 19.21875 C 26.390625 17.292969 27.378906 14.875 27.378906 12.304688 C 27.378906 9.304688 26.042969 6.527344 23.609375 4.484375 C 21.378906 2.605469 18.453125 1.574219 15.371094 1.574219 C 12.707031 1.574219 10.089844 2.371094 7.996094 3.824219 C 6.21875 5.054688 4.875 6.710938 4.101562 8.578125 C 3.800781 9.3125 4.21875 10.144531 4.984375 10.332031 L 9.996094 11.574219 C 10.515625 11.703125 11.042969 11.476562 11.347656 11.035156 C 12.074219 9.964844 13.664062 9.207031 15.371094 9.207031 C 17.738281 9.207031 19.8125 10.652344 19.8125 12.304688 C 19.8125 13.953125 17.738281 15.398438 15.371094 15.398438 L 14.167969 15.398438 C 13.457031 15.398438 12.882812 15.980469 12.882812 16.695312 L 12.882812 21.738281 C 12.882812 22.453125 13.457031 23.035156 14.167969 23.035156 L 15.371094 23.035156 C 17.738281 23.035156 19.8125 24.480469 19.8125 26.128906 C 19.8125 27.78125 17.738281 29.226562 15.371094 29.226562 C 13.664062 29.226562 12.074219 28.46875 11.347656 27.398438 C 11.042969 26.957031 10.515625 26.730469 9.996094 26.859375 Z M 4.984375 28.101562 "
        fill-opacity="1" fill-rule="nonzero"/>
  <g clip-path="url(#0b37c8d75a)">
    <path fill="#000000"
          d="M 15.371094 36.992188 C 12.683594 36.992188 10.035156 36.183594 7.921875 34.71875 C 6.132812 33.476562 4.769531 31.8125 3.984375 29.90625 C 3.828125 29.523438 3.84375 29.089844 4.027344 28.71875 C 4.214844 28.34375 4.550781 28.074219 4.953125 27.976562 L 9.964844 26.734375 C 10.53125 26.59375 11.113281 26.828125 11.453125 27.324219 C 12.171875 28.386719 13.75 29.097656 15.371094 29.097656 C 17.667969 29.097656 19.683594 27.710938 19.683594 26.128906 C 19.683594 24.550781 17.667969 23.164062 15.371094 23.164062 L 14.167969 23.164062 C 13.386719 23.164062 12.753906 22.523438 12.753906 21.738281 L 12.753906 16.695312 C 12.753906 15.910156 13.386719 15.269531 14.167969 15.269531 L 15.371094 15.269531 C 17.667969 15.269531 19.683594 13.882812 19.683594 12.304688 C 19.683594 10.722656 17.667969 9.335938 15.371094 9.335938 C 13.75 9.335938 12.171875 10.046875 11.453125 11.109375 C 11.113281 11.609375 10.53125 11.839844 9.964844 11.699219 L 4.953125 10.460938 C 4.550781 10.359375 4.214844 10.089844 4.027344 9.714844 C 3.84375 9.34375 3.828125 8.910156 3.984375 8.527344 C 4.769531 6.621094 6.132812 4.957031 7.921875 3.71875 C 10.035156 2.25 12.683594 1.445312 15.371094 1.445312 C 18.480469 1.445312 21.4375 2.488281 23.691406 4.382812 C 26.152344 6.453125 27.507812 9.265625 27.507812 12.304688 C 27.507812 13.597656 27.261719 14.859375 26.777344 16.050781 C 26.308594 17.203125 25.625 18.269531 24.75 19.21875 C 25.625 20.167969 26.308594 21.230469 26.777344 22.382812 C 27.261719 23.574219 27.507812 24.835938 27.507812 26.128906 C 27.507812 29.167969 26.152344 31.980469 23.691406 34.050781 C 21.4375 35.945312 18.480469 36.992188 15.371094 36.992188 Z M 4.984375 28.101562 L 5.015625 28.226562 C 4.6875 28.308594 4.410156 28.53125 4.257812 28.835938 C 4.105469 29.136719 4.09375 29.492188 4.222656 29.804688 C 4.988281 31.664062 6.320312 33.289062 8.070312 34.503906 C 10.140625 35.941406 12.734375 36.730469 15.371094 36.730469 C 18.421875 36.730469 21.320312 35.707031 23.527344 33.851562 C 25.929688 31.832031 27.253906 29.089844 27.253906 26.128906 C 27.253906 23.585938 26.292969 21.226562 24.480469 19.304688 C 24.433594 19.257812 24.433594 19.179688 24.480469 19.128906 C 26.292969 17.207031 27.253906 14.847656 27.253906 12.304688 C 27.253906 9.34375 25.929688 6.601562 23.527344 4.582031 C 21.320312 2.726562 18.421875 1.703125 15.371094 1.703125 C 12.734375 1.703125 10.140625 2.492188 8.070312 3.929688 C 6.320312 5.144531 4.988281 6.769531 4.222656 8.628906 C 4.09375 8.941406 4.105469 9.296875 4.257812 9.597656 C 4.410156 9.90625 4.6875 10.125 5.015625 10.207031 L 10.027344 11.449219 C 10.484375 11.5625 10.960938 11.371094 11.238281 10.960938 C 12.007812 9.835938 13.667969 9.078125 15.371094 9.078125 C 17.804688 9.078125 19.941406 10.585938 19.941406 12.304688 C 19.941406 14.023438 17.804688 15.53125 15.371094 15.53125 L 14.167969 15.53125 C 13.527344 15.53125 13.011719 16.054688 13.011719 16.695312 L 13.011719 21.738281 C 13.011719 22.382812 13.527344 22.90625 14.167969 22.90625 L 15.371094 22.90625 C 17.804688 22.90625 19.941406 24.410156 19.941406 26.128906 C 19.941406 27.847656 17.804688 29.355469 15.371094 29.355469 C 13.667969 29.355469 12.007812 28.597656 11.238281 27.472656 C 10.960938 27.0625 10.484375 26.871094 10.027344 26.984375 L 5.015625 28.226562 Z M 4.984375 28.101562 "
          fill-opacity="1" fill-rule="nonzero"/>
  </g>
  <path fill="#bcd855"
        d="M 12.828125 25.433594 L 7.816406 26.675781 C 7.679688 26.710938 7.554688 26.765625 7.441406 26.835938 L 4.726562 28.195312 C 4.808594 28.15625 4.894531 28.125 4.984375 28.101562 L 9.996094 26.859375 C 10.257812 26.796875 10.519531 26.820312 10.753906 26.914062 L 13.589844 25.492188 C 13.355469 25.394531 13.089844 25.367188 12.828125 25.433594 Z M 12.828125 25.433594 "
        fill-opacity="1" fill-rule="nonzero"/>
  <path fill="#000000"
        d="M 4.726562 28.324219 C 4.707031 28.324219 4.6875 28.320312 4.667969 28.3125 C 4.625 28.289062 4.597656 28.246094 4.597656 28.195312 C 4.597656 28.144531 4.625 28.101562 4.667969 28.078125 L 7.386719 26.71875 C 7.511719 26.640625 7.644531 26.585938 7.785156 26.550781 L 12.800781 25.308594 C 13.078125 25.238281 13.371094 25.261719 13.640625 25.371094 C 13.6875 25.390625 13.71875 25.4375 13.71875 25.488281 C 13.722656 25.539062 13.695312 25.585938 13.648438 25.609375 L 10.808594 27.03125 C 10.777344 27.046875 10.738281 27.046875 10.703125 27.035156 C 10.488281 26.945312 10.253906 26.929688 10.027344 26.984375 L 5.015625 28.226562 C 4.9375 28.246094 4.859375 28.273438 4.78125 28.3125 C 4.765625 28.320312 4.746094 28.324219 4.726562 28.324219 Z M 7.488281 26.957031 L 5.945312 27.730469 L 9.96875 26.734375 C 10.226562 26.667969 10.492188 26.683594 10.746094 26.773438 L 13.222656 25.53125 C 13.101562 25.519531 12.980469 25.53125 12.859375 25.558594 L 12.828125 25.433594 L 12.859375 25.558594 L 7.847656 26.800781 C 7.730469 26.832031 7.617188 26.878906 7.511719 26.945312 C 7.503906 26.949219 7.496094 26.953125 7.488281 26.957031 Z M 7.488281 26.957031 "
        fill-opacity="1" fill-rule="nonzero"/>
  <path fill="#bcd855"
        d="M 18.203125 27.800781 C 16.496094 27.800781 14.90625 27.042969 14.179688 25.972656 C 14.027344 25.753906 13.824219 25.589844 13.589844 25.492188 L 10.753906 26.914062 C 10.988281 27.011719 11.195312 27.175781 11.347656 27.398438 C 12.074219 28.46875 13.664062 29.226562 15.371094 29.226562 C 16.914062 29.226562 18.332031 28.613281 19.132812 27.726562 C 18.832031 27.773438 18.519531 27.800781 18.203125 27.800781 Z M 18.203125 27.800781 "
        fill-opacity="1" fill-rule="nonzero"/>
  <path fill="#000000"
        d="M 15.371094 29.355469 C 13.667969 29.355469 12.007812 28.597656 11.238281 27.472656 C 11.105469 27.273438 10.917969 27.121094 10.703125 27.035156 C 10.65625 27.015625 10.625 26.96875 10.625 26.917969 C 10.621094 26.867188 10.648438 26.820312 10.695312 26.796875 L 13.535156 25.375 C 13.566406 25.359375 13.605469 25.359375 13.640625 25.371094 C 13.898438 25.480469 14.121094 25.660156 14.285156 25.898438 C 15.003906 26.960938 16.582031 27.671875 18.203125 27.671875 C 18.503906 27.671875 18.808594 27.648438 19.113281 27.597656 C 19.167969 27.589844 19.21875 27.617188 19.246094 27.664062 C 19.273438 27.714844 19.265625 27.773438 19.226562 27.8125 C 18.367188 28.765625 16.890625 29.355469 15.371094 29.355469 Z M 11.035156 26.917969 C 11.199219 27.023438 11.339844 27.160156 11.453125 27.324219 C 12.171875 28.386719 13.75 29.097656 15.371094 29.097656 C 16.671875 29.097656 17.9375 28.648438 18.773438 27.902344 C 18.582031 27.921875 18.390625 27.929688 18.203125 27.929688 C 16.5 27.929688 14.839844 27.175781 14.074219 26.046875 C 13.949219 25.867188 13.785156 25.726562 13.59375 25.636719 Z M 11.035156 26.917969 "
        fill-opacity="1" fill-rule="nonzero"/>
  <path fill="#bcd855"
        d="M 15.371094 15.398438 C 16.914062 15.398438 18.332031 14.785156 19.132812 13.898438 C 18.832031 13.949219 18.519531 13.972656 18.203125 13.972656 L 17 13.972656 C 16.738281 13.972656 16.5 14.050781 16.296875 14.183594 L 13.691406 15.492188 C 13.835938 15.433594 14 15.398438 14.167969 15.398438 Z M 15.371094 15.398438 "
        fill-opacity="1" fill-rule="nonzero"/>
  <path fill="#000000"
        d="M 13.691406 15.621094 C 13.640625 15.621094 13.59375 15.59375 13.574219 15.546875 C 13.546875 15.480469 13.570312 15.40625 13.632812 15.375 L 16.238281 14.070312 C 16.464844 13.921875 16.730469 13.84375 17 13.84375 L 18.203125 13.84375 C 18.503906 13.84375 18.808594 13.820312 19.113281 13.769531 C 19.167969 13.761719 19.21875 13.789062 19.246094 13.835938 C 19.273438 13.886719 19.265625 13.945312 19.226562 13.984375 C 18.367188 14.9375 16.890625 15.53125 15.371094 15.53125 L 14.167969 15.53125 C 14.019531 15.53125 13.875 15.558594 13.738281 15.613281 C 13.722656 15.621094 13.707031 15.621094 13.691406 15.621094 Z M 14.421875 15.269531 L 15.371094 15.269531 C 16.671875 15.269531 17.9375 14.820312 18.769531 14.078125 C 18.582031 14.09375 18.390625 14.105469 18.203125 14.105469 L 17 14.105469 C 16.773438 14.105469 16.558594 14.167969 16.367188 14.292969 C 16.359375 14.296875 16.351562 14.300781 16.34375 14.304688 Z M 14.421875 15.269531 "
        fill-opacity="1" fill-rule="nonzero"/>
  <path fill="#bcd855"
        d="M 11.347656 11.035156 C 11.226562 11.210938 11.070312 11.351562 10.894531 11.449219 L 13.484375 10.128906 L 13.480469 10.128906 C 13.757812 10.042969 14.003906 9.863281 14.179688 9.609375 C 14.253906 9.496094 14.34375 9.386719 14.4375 9.28125 C 13.105469 9.5 11.9375 10.164062 11.347656 11.035156 Z M 11.347656 11.035156 "
        fill-opacity="1" fill-rule="nonzero"/>
  <path fill="#000000"
        d="M 10.894531 11.582031 C 10.847656 11.582031 10.804688 11.554688 10.78125 11.511719 C 10.746094 11.449219 10.769531 11.371094 10.832031 11.335938 C 10.992188 11.246094 11.132812 11.117188 11.238281 10.960938 C 11.859375 10.054688 13.046875 9.378906 14.417969 9.15625 C 14.472656 9.144531 14.527344 9.171875 14.550781 9.222656 C 14.578125 9.269531 14.570312 9.328125 14.535156 9.371094 C 14.433594 9.480469 14.351562 9.582031 14.285156 9.683594 C 14.101562 9.953125 13.835938 10.152344 13.535156 10.25 L 10.953125 11.566406 C 10.933594 11.574219 10.914062 11.582031 10.894531 11.582031 Z M 14.113281 9.476562 C 13.027344 9.722656 12.097656 10.261719 11.554688 10.96875 L 13.414062 10.019531 C 13.425781 10.015625 13.433594 10.007812 13.445312 10.007812 C 13.695312 9.929688 13.917969 9.761719 14.074219 9.535156 C 14.085938 9.515625 14.097656 9.496094 14.113281 9.476562 Z M 14.113281 9.476562 "
        fill-opacity="1" fill-rule="nonzero"/>
  <g clip-path="url(#f90844205f)">
    <path fill="#bcd855"
          d="M 30.214844 10.878906 C 30.214844 7.878906 28.875 5.101562 26.441406 3.058594 C 24.210938 1.179688 21.285156 0.148438 18.203125 0.148438 C 15.578125 0.148438 13 0.925781 10.921875 2.335938 C 12.332031 1.835938 13.84375 1.574219 15.371094 1.574219 C 18.453125 1.574219 21.378906 2.605469 23.609375 4.484375 C 26.042969 6.527344 27.378906 9.304688 27.378906 12.304688 C 27.378906 14.875 26.390625 17.292969 24.570312 19.21875 C 24.570312 19.21875 25.617188 18.832031 27.402344 17.792969 C 29.222656 15.867188 30.214844 13.449219 30.214844 10.878906 Z M 30.214844 10.878906 "
          fill-opacity="1" fill-rule="nonzero"/>
    <path fill="#000000"
          d="M 24.570312 19.347656 C 24.53125 19.347656 24.488281 19.324219 24.464844 19.289062 C 24.433594 19.238281 24.4375 19.171875 24.480469 19.128906 C 26.292969 17.207031 27.253906 14.847656 27.253906 12.304688 C 27.253906 9.34375 25.929688 6.601562 23.527344 4.582031 C 21.320312 2.726562 18.421875 1.703125 15.371094 1.703125 C 13.863281 1.703125 12.382812 1.957031 10.964844 2.457031 C 10.902344 2.480469 10.835938 2.453125 10.808594 2.394531 C 10.777344 2.335938 10.796875 2.265625 10.851562 2.226562 C 12.949219 0.804688 15.558594 0.0195312 18.203125 0.0195312 C 21.3125 0.0195312 24.269531 1.0625 26.523438 2.957031 C 28.984375 5.027344 30.339844 7.839844 30.339844 10.878906 C 30.339844 12.171875 30.09375 13.433594 29.609375 14.625 C 29.125 15.8125 28.414062 16.910156 27.496094 17.882812 C 27.488281 17.890625 27.480469 17.898438 27.46875 17.902344 C 25.691406 18.9375 24.660156 19.324219 24.617188 19.339844 C 24.601562 19.34375 24.585938 19.347656 24.570312 19.347656 Z M 15.371094 1.445312 C 18.480469 1.445312 21.4375 2.488281 23.691406 4.382812 C 26.152344 6.453125 27.507812 9.265625 27.507812 12.304688 C 27.507812 13.597656 27.261719 14.859375 26.777344 16.050781 C 26.363281 17.066406 25.785156 18.011719 25.054688 18.871094 C 25.527344 18.65625 26.304688 18.277344 27.324219 17.6875 C 29.128906 15.769531 30.085938 13.417969 30.085938 10.878906 C 30.085938 7.917969 28.761719 5.175781 26.359375 3.15625 C 24.152344 1.300781 21.253906 0.277344 18.203125 0.277344 C 15.964844 0.277344 13.75 0.851562 11.859375 1.90625 C 13.003906 1.597656 14.179688 1.445312 15.371094 1.445312 Z M 15.371094 1.445312 "
          fill-opacity="1" fill-rule="nonzero"/>
  </g>
  <g clip-path="url(#0530295a6e)" >
    <path fill="#bcd855"
          d="M 24.570312 19.21875 C 26.390625 21.140625 27.378906 23.558594 27.378906 26.128906 C 27.378906 29.128906 26.042969 31.90625 23.609375 33.953125 C 23.296875 34.214844 22.96875 34.457031 22.632812 34.6875 C 24.03125 34.195312 25.324219 33.464844 26.441406 32.527344 C 28.875 30.480469 30.214844 27.703125 30.214844 24.707031 C 30.214844 22.132812 29.222656 19.71875 27.402344 17.792969 C 25.617188 18.832031 24.570312 19.21875 24.570312 19.21875 Z M 24.570312 19.21875 "
          fill-opacity="1" fill-rule="nonzero"/>
    <path fill="#000000"
          d="M 22.632812 34.816406 C 22.585938 34.816406 22.539062 34.789062 22.515625 34.746094 C 22.488281 34.6875 22.507812 34.617188 22.5625 34.578125 C 22.90625 34.34375 23.230469 34.101562 23.527344 33.851562 C 25.929688 31.832031 27.253906 29.089844 27.253906 26.128906 C 27.253906 23.585938 26.292969 21.226562 24.480469 19.304688 C 24.449219 19.273438 24.4375 19.230469 24.445312 19.1875 C 24.457031 19.144531 24.488281 19.109375 24.527344 19.09375 C 24.539062 19.089844 25.585938 18.699219 27.339844 17.679688 C 27.390625 17.648438 27.457031 17.660156 27.496094 17.703125 C 28.414062 18.671875 29.125 19.769531 29.609375 20.957031 C 30.09375 22.148438 30.339844 23.410156 30.339844 24.707031 C 30.339844 27.742188 28.984375 30.554688 26.523438 32.625 C 25.398438 33.570312 24.105469 34.304688 22.675781 34.808594 C 22.660156 34.816406 22.644531 34.816406 22.632812 34.816406 Z M 24.796875 19.269531 C 25.648438 20.203125 26.316406 21.25 26.777344 22.382812 C 27.261719 23.574219 27.507812 24.835938 27.507812 26.128906 C 27.507812 29.167969 26.152344 31.980469 23.691406 34.050781 C 23.632812 34.101562 23.574219 34.148438 23.511719 34.199219 C 24.550781 33.738281 25.507812 33.144531 26.359375 32.425781 C 28.761719 30.40625 30.085938 27.664062 30.085938 24.707031 C 30.085938 22.195312 29.148438 19.863281 27.378906 17.953125 C 26.054688 18.71875 25.15625 19.117188 24.796875 19.269531 Z M 24.796875 19.269531 "
          fill-opacity="1" fill-rule="nonzero"/>
  </g>
</svg>
