<svg xmlns="http://www.w3.org/2000/svg"
     viewBox="60 60 255 255" preserveAspectRatio="xMidYMid meet" version="1.0" width="800" height="800">

  <style>
    path {
    fill: rgb(255, 191, 35);
    }

    @media (prefers-color-scheme: dark) {

    }
  </style>

  <g>
    <rect x="60" y="60" width="255" height="255" fill="#222"/>
    <path
      d="M 187.496094 124.546875 C 222.242188 124.546875 250.449219 152.753906 250.449219 187.496094 C 250.449219 222.242188 222.242188 250.449219 187.496094 250.449219 C 152.753906 250.449219 124.546875 222.242188 124.546875 187.496094 C 124.546875 152.753906 152.753906 124.546875 187.496094 124.546875 Z M 192.746094 99.445312 C 189.25 99.238281 185.746094 99.238281 182.25 99.445312 L 176.15625 113.382812 C 170.71875 114.214844 165.386719 115.644531 160.261719 117.644531 L 148.019531 108.617188 C 144.886719 110.1875 141.851562 111.9375 138.925781 113.867188 L 140.617188 128.984375 C 136.324219 132.425781 132.421875 136.324219 128.984375 140.621094 L 113.867188 138.925781 C 111.9375 141.851562 110.1875 144.886719 108.617188 148.019531 L 117.644531 160.261719 C 115.644531 165.386719 114.214844 170.71875 113.382812 176.15625 L 99.445312 182.246094 C 99.238281 185.746094 99.238281 189.25 99.445312 192.746094 L 113.382812 198.835938 C 114.21875 204.277344 115.644531 209.605469 117.644531 214.730469 L 108.617188 226.976562 C 110.1875 230.109375 111.9375 233.144531 113.867188 236.066406 L 128.984375 234.375 C 132.425781 238.667969 136.324219 242.570312 140.621094 246.011719 L 138.925781 261.125 C 141.851562 263.054688 144.886719 264.808594 148.019531 266.375 L 160.261719 257.351562 C 165.386719 259.347656 170.71875 260.777344 176.15625 261.609375 L 182.25 275.546875 C 185.746094 275.753906 189.25 275.753906 192.746094 275.546875 L 198.839844 261.609375 C 204.277344 260.777344 209.605469 259.347656 214.734375 257.351562 L 226.976562 266.375 C 230.109375 264.808594 233.144531 263.054688 236.066406 261.125 L 234.375 246.011719 C 238.667969 242.570312 242.570312 238.667969 246.011719 234.375 L 261.125 236.066406 C 263.054688 233.144531 264.808594 230.109375 266.375 226.976562 L 257.351562 214.730469 C 259.347656 209.605469 260.777344 204.277344 261.609375 198.835938 L 275.546875 192.746094 C 275.757812 189.25 275.757812 185.746094 275.546875 182.246094 L 261.609375 176.15625 C 260.777344 170.71875 259.347656 165.386719 257.351562 160.261719 L 266.375 148.019531 C 264.808594 144.886719 263.054688 141.851562 261.125 138.925781 L 246.011719 140.621094 C 242.570312 136.324219 238.667969 132.425781 234.375 128.984375 L 236.066406 113.867188 C 233.144531 111.941406 230.109375 110.1875 226.976562 108.621094 L 214.734375 117.644531 C 209.605469 115.644531 204.277344 114.21875 198.839844 113.386719 Z M 192.746094 99.445312 "
      fill-opacity="1" fill-rule="evenodd"/>
    <circle cx="188" cy="188" r="65" fill="rgb(255, 191, 35)"/>
    <circle cx="187.5" cy="187.5" r="40" fill="#222"/>
  </g>
</svg>
