<svg xmlns="http://www.w3.org/2000/svg" width="100" zoomAndPan="magnify" viewBox="145 145 85 80" height="100"
     preserveAspectRatio="xMidYMid meet" version="1.0">
  <style>
    path {
    fill: #222;
    }
    @media (prefers-color-scheme: dark) {
    path {
    fill: #eee;
    }
    }
  </style>

<!--  <g clip-path="url(#b987ed19db)">-->
<!--    <path-->
<!--          d="M 187.496094 124.546875 C 222.242188 124.546875 250.449219 152.753906 250.449219 187.496094 C 250.449219 222.242188 222.242188 250.449219 187.496094 250.449219 C 152.753906 250.449219 124.546875 222.242188 124.546875 187.496094 C 124.546875 152.753906 152.753906 124.546875 187.496094 124.546875 Z M 192.746094 99.445312 C 189.25 99.238281 185.746094 99.238281 182.25 99.445312 L 176.15625 113.382812 C 170.71875 114.214844 165.386719 115.644531 160.261719 117.644531 L 148.019531 108.617188 C 144.886719 110.1875 141.851562 111.9375 138.925781 113.867188 L 140.617188 128.984375 C 136.324219 132.425781 132.421875 136.324219 128.984375 140.621094 L 113.867188 138.925781 C 111.9375 141.851562 110.1875 144.886719 108.617188 148.019531 L 117.644531 160.261719 C 115.644531 165.386719 114.214844 170.71875 113.382812 176.15625 L 99.445312 182.246094 C 99.238281 185.746094 99.238281 189.25 99.445312 192.746094 L 113.382812 198.835938 C 114.21875 204.277344 115.644531 209.605469 117.644531 214.730469 L 108.617188 226.976562 C 110.1875 230.109375 111.9375 233.144531 113.867188 236.066406 L 128.984375 234.375 C 132.425781 238.667969 136.324219 242.570312 140.621094 246.011719 L 138.925781 261.125 C 141.851562 263.054688 144.886719 264.808594 148.019531 266.375 L 160.261719 257.351562 C 165.386719 259.347656 170.71875 260.777344 176.15625 261.609375 L 182.25 275.546875 C 185.746094 275.753906 189.25 275.753906 192.746094 275.546875 L 198.839844 261.609375 C 204.277344 260.777344 209.605469 259.347656 214.734375 257.351562 L 226.976562 266.375 C 230.109375 264.808594 233.144531 263.054688 236.066406 261.125 L 234.375 246.011719 C 238.667969 242.570312 242.570312 238.667969 246.011719 234.375 L 261.125 236.066406 C 263.054688 233.144531 264.808594 230.109375 266.375 226.976562 L 257.351562 214.730469 C 259.347656 209.605469 260.777344 204.277344 261.609375 198.835938 L 275.546875 192.746094 C 275.757812 189.25 275.757812 185.746094 275.546875 182.246094 L 261.609375 176.15625 C 260.777344 170.71875 259.347656 165.386719 257.351562 160.261719 L 266.375 148.019531 C 264.808594 144.886719 263.054688 141.851562 261.125 138.925781 L 246.011719 140.621094 C 242.570312 136.324219 238.667969 132.425781 234.375 128.984375 L 236.066406 113.867188 C 233.144531 111.941406 230.109375 110.1875 226.976562 108.621094 L 214.734375 117.644531 C 209.605469 115.644531 204.277344 114.21875 198.839844 113.386719 Z M 192.746094 99.445312 "-->
<!--          fill-opacity="1" fill-rule="evenodd"/>-->
<!--  </g>-->
  <g>
    <g transform="translate(146.954731, 209.25145)">
      <g>
        <path
          d="M 33.277344 -8.335938 C 29.480469 -13.648438 25.042969 -16.539062 20.335938 -17.714844 C 31.09375 -18.152344 35.296875 -23.363281 35.296875 -31.394531 C 35.296875 -40.203125 30.722656 -45.714844 18.824219 -45.714844 L 12.707031 -45.714844 L 12.707031 -45.683594 C 12.605469 -45.714844 12.503906 -45.714844 12.371094 -45.714844 L 4.976562 -45.714844 C 4.101562 -45.714844 3.628906 -45.246094 3.628906 -44.371094 L 3.628906 1.34375 C 9.480469 0.671875 13.714844 -4.300781 13.714844 -12.707031 L 13.714844 -17.679688 L 14.183594 -17.679688 L 26.019531 -0.875 C 26.488281 -0.269531 26.960938 0 27.632812 0 L 37.179688 0 C 37.917969 0 38.320312 -0.335938 38.320312 -0.875 C 38.320312 -1.074219 38.253906 -1.34375 38.050781 -1.613281 Z M 25.210938 -31.058594 C 25.210938 -25.007812 19.898438 -24.941406 17.816406 -24.941406 L 13.714844 -24.941406 L 13.714844 -36.976562 L 17.816406 -36.976562 C 19.96875 -36.976562 25.210938 -37.042969 25.210938 -31.058594 Z M 25.210938 -31.058594 "/>
      </g>
    </g>
  </g>
  <g>
    <g transform="translate(189.639623, 209.25145)">
      <g>
        <path
          d="M 28.101562 -24.539062 C 31.464844 -26.019531 33.546875 -29.515625 33.546875 -33.613281 C 33.546875 -41.347656 27.96875 -45.714844 18.019531 -45.714844 L 4.976562 -45.714844 C 4.101562 -45.714844 3.628906 -45.246094 3.628906 -44.371094 L 3.628906 1.34375 C 10.085938 0 13.714844 -5.042969 13.714844 -12.570312 L 13.714844 -19.09375 L 20.574219 -19.09375 C 24.40625 -19.09375 26.554688 -16.875 26.554688 -13.582031 C 26.554688 -10.21875 24.472656 -8.066406 19.898438 -8.066406 L 13.714844 -8.066406 C 14.589844 -2.824219 18.019531 0.671875 23.394531 0.671875 C 31.195312 0.671875 36.640625 -4.300781 36.640625 -11.898438 C 36.640625 -19.09375 33.613281 -23.128906 28.101562 -24.539062 Z M 13.714844 -27.160156 L 13.714844 -36.976562 L 18.019531 -36.976562 C 21.984375 -36.976562 23.664062 -35.296875 23.664062 -32.136719 C 23.664062 -28.910156 21.917969 -27.160156 18.019531 -27.160156 Z M 13.714844 -27.160156 "/>
      </g>
    </g>
  </g>
</svg>
