<svg version="1.1" xmlns="http://www.w3.org/2000/svg" viewBox="0 0 88 88" width="30" height="30">
    <!-- svg-source:excalidraw -->

    <defs>
        <style class="style-fonts">
            @font-face {
            font-family: "Virgil";
            src: url("https://excalidraw.com/Virgil.woff2");
            }
            @font-face {
            font-family: "Cascadia";
            src: url("https://excalidraw.com/Cascadia.woff2");
            }
        </style>
    </defs>
    <g stroke-linecap="round" transform="translate(10 10) rotate(0 34 34)">
        <path d="M31.39 0.13 C37.77 -0.75, 46.93 1.44, 52.55 5.14 C58.17 8.85, 62.65 15.95, 65.12 22.37 C67.58 28.79, 69 37.3, 67.33 43.66 C65.65 50.02, 60.45 56.44, 55.06 60.54 C49.68 64.65, 41.53 68.14, 35.04 68.3 C28.55 68.47, 21.71 65.21, 16.11 61.54 C10.51 57.87, 4.05 52.18, 1.45 46.29 C-1.15 40.4, -1.26 32.72, 0.54 26.2 C2.34 19.68, 6.11 11.63, 12.28 7.18 C18.44 2.73, 32.23 0.38, 37.51 -0.5 C42.79 -1.38, 44.07 1.09, 43.96 1.89 M38.99 0.11 C45.52 1.05, 54.29 6.15, 58.89 11.04 C63.49 15.93, 65.73 22.83, 66.58 29.45 C67.43 36.07, 67.06 45.04, 64 50.76 C60.93 56.47, 54.31 61.02, 48.19 63.72 C42.08 66.43, 33.53 67.99, 27.31 66.98 C21.09 65.98, 15.54 62.28, 10.86 57.68 C6.17 53.08, 0.46 45.8, -0.79 39.38 C-2.04 32.96, 0.21 25.16, 3.36 19.15 C6.51 13.14, 12.16 6.19, 18.12 3.31 C24.07 0.43, 35.65 2.3, 39.09 1.88 C42.53 1.47, 38.77 0.38, 38.74 0.82"
              stroke="#000000" stroke-width="4" fill="none"></path>
    </g>
    <g stroke-linecap="round">
        <g transform="translate(44.56856344960079 44.47714551679974) rotate(359.1769701140237 0.6123267166391884 9.220755666676098)">
            <path d="M0.49 -1.03 C0.54 2.28, -0.15 16.36, -0.15 19.48 M-0.71 1.04 C-0.28 4.05, 1.92 14.9, 1.94 17.81"
                  stroke="#000000" stroke-width="4" fill="none"></path>
        </g>
    </g>
    <mask></mask>
    <g stroke-linecap="round"
       transform="translate(40.135698975350465 25.882111288143733) rotate(0 3.1371268992016894 3.1371268992016894)">
        <path d="M4.53 0.48 C5.1 0.54, 5.25 0.18, 5.45 0.72 C5.64 1.26, 5.62 2.93, 5.69 3.72 C5.77 4.5, 6.28 4.99, 5.9 5.42 C5.53 5.85, 4.22 6.08, 3.43 6.3 C2.64 6.52, 1.72 7.08, 1.17 6.75 C0.62 6.42, 0.32 5.01, 0.12 4.33 C-0.08 3.64, -0.3 3.36, -0.03 2.62 C0.24 1.89, 1.2 0.39, 1.75 -0.09 C2.29 -0.56, 2.62 -0.31, 3.24 -0.24 C3.85 -0.17, 5.13 0.32, 5.42 0.34 M2.38 -1.05 C3.18 -1.03, 4.02 1.32, 4.75 2.19 C5.48 3.06, 6.47 3.77, 6.75 4.17 C7.03 4.57, 6.78 4.27, 6.45 4.58 C6.12 4.89, 5.69 5.62, 4.78 6.04 C3.87 6.45, 1.83 7.43, 0.98 7.09 C0.13 6.74, -0.14 4.97, -0.31 3.98 C-0.48 2.99, -0.5 1.74, -0.02 1.14 C0.45 0.54, 2.18 0.75, 2.52 0.36 C2.86 -0.03, 2.1 -1.36, 2.01 -1.17 C1.92 -0.99, 1.87 1.33, 1.97 1.47"
              stroke="none" stroke-width="0" fill="#000000"></path>
        <path d="M4.43 0.05 C4.95 0.11, 5.38 0.56, 5.78 1.08 C6.18 1.6, 6.89 2.5, 6.83 3.19 C6.78 3.88, 6.22 4.65, 5.45 5.19 C4.69 5.74, 2.93 6.28, 2.23 6.48 C1.52 6.69, 1.49 6.92, 1.21 6.43 C0.92 5.95, 0.57 4.24, 0.51 3.58 C0.44 2.91, 0.54 3.01, 0.82 2.45 C1.11 1.88, 1.76 0.38, 2.22 0.18 C2.68 -0.03, 3.1 1.2, 3.57 1.2 C4.05 1.21, 4.92 0.35, 5.05 0.2 M3.64 1.19 C4.66 1.35, 6.63 0.88, 7.15 1.16 C7.67 1.43, 7.11 2.29, 6.78 2.85 C6.46 3.42, 6.01 3.74, 5.2 4.54 C4.4 5.34, 2.7 7.29, 1.95 7.64 C1.2 7.99, 0.81 7.46, 0.71 6.65 C0.61 5.85, 1.31 3.52, 1.37 2.81 C1.44 2.1, 1.07 2.89, 1.1 2.41 C1.13 1.93, 0.98 0.33, 1.56 -0.07 C2.13 -0.46, 4.28 0.12, 4.55 0.05 C4.81 -0.02, 3.08 -0.65, 3.15 -0.48"
              stroke="#000000" stroke-width="1" fill="none"></path>
    </g>
</svg>