<svg xmlns="http://www.w3.org/2000/svg" width="25" zoomAndPan="magnify"
     viewBox="0 0 37.5 37.499999" height="25" preserveAspectRatio="xMidYMid meet" version="1.0">
  <defs>
    <clipPath id="a881fda6da">
      <path d="M 0 0 L 37.007812 0 L 37.007812 37.007812 L 0 37.007812 Z M 0 0 " clip-rule="nonzero"/>
    </clipPath>
  </defs>
  <g clip-path="url(#a881fda6da)">
    <path fill="#333"
          d="M 29.554688 18.757812 C 29.5 19.339844 29.246094 19.914062 28.796875 20.363281 L 21.359375 27.800781 C 20.328125 28.824219 18.667969 28.824219 17.640625 27.800781 C 16.613281 26.773438 16.613281 25.105469 17.640625 24.082031 L 20.585938 21.136719 L 10.070312 21.136719 C 8.617188 21.136719 7.441406 19.957031 7.441406 18.503906 C 7.441406 17.050781 8.617188 15.875 10.070312 15.871094 L 20.589844 15.875 L 17.640625 12.925781 C 16.613281 11.894531 16.613281 10.234375 17.640625 9.207031 C 18.667969 8.175781 20.332031 8.175781 21.359375 9.207031 L 28.796875 16.644531 C 29.375 17.222656 29.628906 18 29.554688 18.757812 Z M 18.503906 0 C 8.300781 0 0 8.300781 0 18.503906 C 0 28.707031 8.300781 37.007812 18.503906 37.007812 C 28.707031 37.007812 37.007812 28.707031 37.007812 18.503906 C 37.007812 8.300781 28.707031 0 18.503906 0 "
          fill-opacity="1" fill-rule="nonzero"/>
  </g>
</svg>
