<svg width="497.80218505859375px" height="130.39999999999998px" xmlns="http://www.w3.org/2000/svg" viewBox="1.098907470703125 9.800000000000011 497.80218505859375 130.39999999999998" style="background: rgba(0, 0, 0, 0);" preserveAspectRatio="xMidYMid"><defs><linearGradient id="editing-outline-gradient" x1="-0.41354545764260087" x2="1.4135454576426008" y1="0.09326335692419985" y2="0.9067366430758002"><stop offset="0" stop-color="#ee4208"></stop><stop offset="1" stop-color="#4139ff"></stop></linearGradient><filter id="editing-outline" x="-100%" y="-100%" width="300%" height="300%"><feMorphology in="SourceGraphic" operator="dilate" radius="8" result="outline"></feMorphology><feComposite operator="out" in="outline" in2="SourceAlpha"></feComposite></filter></defs><g filter="url(#editing-outline)"><g transform="translate(78.52393364906311, 97.91500091552734)"><path d="M42.30 3.07L42.30 3.07Q42.30 3.33 41.86 3.33L41.86 3.33L41.86 3.33Q41.54 3.33 41.09 3.07L41.09 3.07L41.09 3.07Q40.64 2.82 40.38 2.37L40.38 2.37L40.38 2.37Q39.87 1.28 39.87-0.32L39.87-0.32L39.94-2.94L39.94-2.94Q41.92-14.59 44.61-26.37L44.61-26.37L44.61-26.37Q45.50-29.50 46.11-32.32L46.11-32.32L46.11-32.32Q46.72-35.14 46.85-35.90L46.85-35.90L46.85-35.90Q46.85-36.10 46.50-35.74L46.50-35.74L46.50-35.74Q46.14-35.39 45.82-34.91L45.82-34.91L45.82-34.91Q45.50-34.43 45.57-34.24L45.57-34.24L43.97-31.87L43.97-31.87Q43.58-31.49 42.18-28.93L42.18-28.93L42.18-28.93Q41.22-26.88 40.45-25.73L40.45-25.73L38.66-22.34L38.66-22.34Q36.67-18.69 36.22-17.92L36.22-17.92L36.22-17.92Q35.58-16.96 34.37-14.59L34.37-14.59L34.37-14.59Q33.73-13.06 32.06-10.94L32.06-10.94L32.06-10.94Q31.55-10.24 31.07-9.41L31.07-9.41L31.07-9.41Q30.59-8.58 30.46-8.32L30.46-8.32L30.46-8.32Q30.46-8 29.15-6.14L29.15-6.14L29.15-6.14Q27.84-4.29 26.75-3.07L26.75-3.07L26.75-3.07Q25.28-1.54 24.32-0.86L24.32-0.86L24.32-0.86Q23.36-0.19 22.53-0.19L22.53-0.19L22.53-0.19Q21.44-0.19 20.16-1.41L20.16-1.41L20.16-1.41Q19.33-2.30 18.98-3.52L18.98-3.52L18.98-3.52Q18.62-4.74 18.62-6.53L18.62-6.53L18.62-6.53Q18.62-8.13 19.07-11.90L19.07-11.90L19.07-11.90Q19.14-12.22 20.29-18.75L20.29-18.75L20.29-18.75Q21.50-25.34 21.76-25.98L21.76-25.98L21.76-25.98Q21.82-26.37 21.82-26.88L21.82-26.88L21.82-26.88Q21.82-27.46 21.63-27.46L21.63-27.46L21.63-27.46Q21.44-27.46 20.93-26.62L20.93-26.62L20.93-26.62Q20.74-26.37 18.66-23.04L18.66-23.04L18.66-23.04Q16.58-19.71 14.21-14.53L14.21-14.53L14.21-14.53Q10.50-7.68 8.70-4.26L8.70-4.26L8.70-4.26Q6.91-0.83 6.08 0.64L6.08 0.64L6.08 0.64Q4.99 2.75 4.80 2.94L4.80 2.94L4.80 2.94Q3.84 2.94 2.37 1.34L2.37 1.34L2.37 1.34Q2.18 0.96 2.18 0.64L2.18 0.64L2.18 0.64Q2.18 0.19 2.59-0.83L2.59-0.83L2.59-0.83Q3.01-1.86 3.78-3.52L3.78-3.52L3.78-3.52Q5.76-7.42 6.40-7.94L6.40-7.94L6.40-7.94Q7.17-8.96 7.30-10.18L7.30-10.18L7.30-10.18Q8.13-11.33 9.66-14.34L9.66-14.34L9.66-14.34Q10.62-15.87 11.94-18.18L11.94-18.18L11.94-18.18Q13.25-20.48 14.27-22.59L14.27-22.59L16.06-25.73L16.06-25.73Q18.56-30.08 20.06-32.45L20.06-32.45L20.06-32.45Q21.57-34.82 22.34-35.58L22.34-35.58L22.34-35.58Q23.36-36.80 23.36-37.50L23.36-37.50L23.36-37.50Q23.36-38.85 23.90-39.97L23.90-39.97L23.90-39.97Q24.45-41.09 25.02-40.96L25.02-40.96L25.02-40.96Q25.79-40.96 26.27-40.80L26.27-40.80L26.27-40.80Q26.75-40.64 27.26-40L27.26-40L27.26-40Q27.39-39.81 27.68-39.39L27.68-39.39L27.68-39.39Q27.97-38.98 28.13-38.50L28.13-38.50L28.13-38.50Q28.29-38.02 28.29-37.31L28.29-37.31L28.29-37.31Q28.29-36.54 28.10-35.39L28.10-35.39L28.10-35.39Q28.03-34.56 27.58-31.62L27.58-31.62L27.58-31.62Q27.33-30.21 27.33-29.89L27.33-29.89L27.33-29.89Q25.66-24.83 24.35-17.25L24.35-17.25L24.35-17.25Q23.04-9.66 23.04-6.59L23.04-6.59L23.04-6.59Q23.04-5.89 23.17-5.63L23.17-5.63L23.17-5.63Q23.62-5.31 23.97-5.57L23.97-5.57L23.97-5.57Q24.32-5.82 25.02-7.23L25.02-7.23L25.02-7.23Q25.86-8.77 27.84-11.20L27.84-11.20L27.84-11.20Q27.97-11.39 30.34-15.42L30.34-15.42L30.34-15.42Q36.22-25.09 41.79-34.82L41.79-34.82L43.46-37.44L43.46-37.44Q44.42-38.98 45.31-40.29L45.31-40.29L45.31-40.29Q46.21-41.60 46.72-41.98L46.72-41.98L46.72-41.98Q47.36-42.50 47.94-42.50L47.94-42.50L47.94-42.50Q49.15-42.50 50.11-41.02L50.11-41.02L50.11-41.02Q51.07-39.55 51.07-37.31L51.07-37.31L51.07-37.31Q51.07-35.58 50.37-32.03L50.37-32.03L50.37-32.03Q49.66-28.48 48.51-24.90L48.51-24.90L48.51-24.90Q48.13-23.10 47.42-20.42L47.42-20.42L47.42-20.42Q46.72-17.73 45.95-15.55L45.95-15.55L45.95-15.55Q45.82-14.46 45.44-12.80L45.44-12.80L45.44-12.80Q45.38-12.48 45.09-10.85L45.09-10.85L45.09-10.85Q44.80-9.22 44.93-8.64L44.93-8.64L44.93-8.64Q43.97-6.91 43.97-1.73L43.97-1.73L43.78-0.26L43.78-0.26Q43.65 1.54 43.52 2.18L43.52 2.18L43.52 2.18Q43.39 2.82 43.14 2.75L43.14 2.75L43.14 2.75Q43.01 2.69 42.75 2.69L42.75 2.69L42.75 2.69Q42.30 2.69 42.30 3.07L42.30 3.07ZM60.03-28.03L60.03-28.03Q59.58-28.48 59.26-29.57L59.26-29.57L59.26-29.57Q58.94-30.66 59.26-30.66L59.26-30.66L59.26-30.66Q59.78-30.72 60.45-31.78L60.45-31.78L60.45-31.78Q61.12-32.83 61.06-33.54L61.06-33.54L61.06-33.54Q61.06-33.79 61.25-34.02L61.25-34.02L61.25-34.02Q61.44-34.24 61.70-34.30L61.70-34.30L61.70-34.30Q62.21-34.62 62.59-34.62L62.59-34.62L62.59-34.62Q63.68-34.62 64.58-33.09L64.58-33.09L64.58-33.09Q64.96-32.26 64.96-31.62L64.96-31.62L64.96-31.62Q64.96-31.04 64.64-30.43L64.64-30.43L64.64-30.43Q64.32-29.82 63.49-28.86L63.49-28.86L63.49-28.86Q62.40-27.39 61.44-27.39L61.44-27.39L61.44-27.39Q60.80-27.39 60.03-28.03L60.03-28.03ZM53.82-2.05L53.82-2.05Q52.93-2.94 52.93-4.61L52.93-4.61L52.93-4.61Q52.93-5.50 53.25-6.14L53.25-6.14L53.25-6.14Q53.25-6.46 53.38-6.91L53.38-6.91L53.38-6.91Q53.50-7.36 53.50-7.49L53.50-7.49L53.50-7.49Q53.44-7.87 54.02-9.60L54.02-9.60L54.02-9.60Q55.17-12.16 57.09-18.62L57.09-18.62L57.09-18.62Q57.09-18.94 57.34-19.17L57.34-19.17L57.34-19.17Q57.60-19.39 58.11-19.46L58.11-19.46L58.11-19.46Q58.62-19.58 58.82-19.58L58.82-19.58L58.82-19.58Q59.20-19.58 59.49-19.30L59.49-19.30L59.49-19.30Q59.78-19.01 60.29-18.24L60.29-18.24L60.29-18.24Q60.67-17.86 60.67-17.09L60.67-17.09L60.67-17.09Q60.67-15.87 59.84-14.14L59.84-14.14L59.84-14.14Q59.01-12.29 58.75-10.94L58.75-10.94L58.75-10.94Q57.98-9.22 57.54-7.74L57.54-7.74L57.54-7.74Q57.41-7.36 57.15-6.21L57.15-6.21L57.15-6.21Q56.90-5.06 56.45-4.35L56.45-4.35L56.45-4.35Q56.06-2.56 55.74-1.86L55.74-1.86L55.74-1.86Q55.42-1.15 55.04-1.15L55.04-1.15L55.04-1.15Q54.59-1.15 53.82-2.05L53.82-2.05ZM72.06-0.70L72.06-0.70Q71.17-0.58 70.72-0.58L70.72-0.58L70.72-0.58Q68.35-0.58 66.82-2.05L66.82-2.05L66.82-2.05Q65.28-3.52 65.28-6.14L65.28-6.14L65.28-6.14Q65.02-8.96 66.53-13.12L66.53-13.12L66.53-13.12Q68.03-17.28 70.34-20.10L70.34-20.10L70.34-20.10Q71.94-21.95 73.09-23.10L73.09-23.10L73.09-23.10Q74.24-24.26 75.20-24.64L75.20-24.64L75.20-24.64Q76.54-25.22 78.21-25.22L78.21-25.22L78.21-25.22Q79.36-24.96 80.48-24.26L80.48-24.26L80.48-24.26Q81.60-23.55 81.60-22.85L81.60-22.85L81.92-22.53L81.92-22.53Q82.30-22.53 82.62-21.60L82.62-21.60L82.62-21.60Q82.94-20.67 82.94-19.58L82.94-19.58L82.94-19.58Q82.94-18.69 82.62-18.05L82.62-18.05L82.62-18.05Q82.37-16.83 81.76-15.94L81.76-15.94L81.76-15.94Q81.15-15.04 80.58-15.04L80.58-15.04L80.58-15.04Q79.87-15.04 79.87-14.66L79.87-14.66L79.87-14.66Q79.87-14.40 79.62-14.40L79.62-14.40L79.62-14.40Q79.30-14.40 78.85-14.78L78.85-14.78L78.85-14.78Q78.40-15.17 78.21-15.68L78.21-15.68L78.21-15.68Q78.21-15.87 78.46-16.77L78.46-16.77L78.46-16.77Q78.72-17.66 78.98-18.75L78.98-18.75L78.98-18.75Q79.17-19.52 79.17-20.10L79.17-20.10L79.17-20.10Q79.17-21.38 78.21-21.38L78.21-21.38L78.21-21.38Q77.70-21.38 77.18-21.12L77.18-21.12L77.18-21.12Q74.62-19.71 72.64-16.64L72.64-16.64L72.64-16.64Q70.66-13.57 69.31-8.19L69.31-8.19L69.31-8.19Q68.99-6.78 68.99-5.95L68.99-5.95L68.99-5.95Q68.99-5.31 69.09-4.93L69.09-4.93L69.09-4.93Q69.18-4.54 69.31-4.48L69.31-4.48L69.31-4.48Q69.63-4.35 70.66-4.35L70.66-4.35L70.66-4.35Q73.02-4.35 73.98-4.93L73.98-4.93L73.98-4.93Q76.03-6.02 78.53-7.87L78.53-7.87L78.53-7.87Q78.78-8.06 79.30-8.54L79.30-8.54L79.30-8.54Q79.81-9.02 80.26-9.22L80.26-9.22L80.26-9.22Q80.70-9.92 81.09-10.08L81.09-10.08L81.09-10.08Q81.47-10.24 82.30-10.24L82.30-10.24L82.30-10.24Q83.14-9.98 83.65-9.57L83.65-9.57L83.65-9.57Q84.16-9.15 83.65-8.90L83.65-8.90L83.65-8.90Q83.46-8.90 83.39-8.77L83.39-8.77L83.39-8.77Q83.33-8.64 83.33-8.58L83.33-8.58L83.33-8.58Q83.46-8.26 82.30-6.98L82.30-6.98L82.30-6.98Q81.15-5.70 79.74-4.58L79.74-4.58L79.74-4.58Q78.34-3.46 77.82-3.46L77.82-3.46L77.82-3.46Q77.57-3.46 77.38-3.39L77.38-3.39L77.38-3.39Q77.18-3.33 77.18-3.07L77.18-3.07L77.18-3.07Q77.18-2.82 75.23-1.89L75.23-1.89L75.23-1.89Q73.28-0.96 72.06-0.70L72.06-0.70ZM89.02-2.24L89.02-2.24Q88.51-2.62 88.32-2.94L88.32-2.94L88.32-2.94Q88.13-3.26 88.13-3.90L88.13-3.90L88.13-3.90Q88.13-4.48 88.19-4.86L88.19-4.86L88.19-4.86Q88.38-7.04 89.15-9.92L89.15-9.92L89.47-11.20L89.47-11.20Q89.66-12.80 91.71-17.92L91.71-17.92L91.71-17.92Q93.76-23.04 95.04-24.90L95.04-24.90L95.04-24.90Q95.55-25.22 96.13-25.22L96.13-25.22L96.13-25.22Q96.96-25.22 97.54-24.64L97.54-24.64L97.54-24.64Q97.92-24.38 97.92-23.68L97.92-23.68L97.92-23.68Q97.92-23.04 97.44-21.79L97.44-21.79L97.44-21.79Q96.96-20.54 95.81-18.11L95.81-18.11L95.81-18.11Q95.55-17.60 94.94-16.19L94.94-16.19L94.94-16.19Q94.34-14.78 94.34-14.53L94.34-14.53L94.34-14.53Q94.34-14.40 94.40-14.40L94.40-14.40L94.40-14.40Q94.53-14.40 94.66-14.50L94.66-14.50L94.66-14.50Q94.78-14.59 94.91-14.66L94.91-14.66L94.91-14.66Q95.62-15.87 98.34-17.98L98.34-17.98L98.34-17.98Q101.06-20.10 102.08-20.61L102.08-20.61L102.08-20.61Q102.53-20.86 103.23-21.12L103.23-21.12L103.23-21.12Q103.94-21.38 104.19-21.50L104.19-21.50L104.19-21.50Q105.22-22.02 106.62-22.02L106.62-22.02L106.62-22.02Q107.52-22.02 108.19-21.73L108.19-21.73L108.19-21.73Q108.86-21.44 109.12-20.86L109.12-20.86L109.12-20.86Q109.18-20.42 109.47-20.16L109.47-20.16L109.47-20.16Q109.76-19.90 109.89-19.84L109.89-19.84L109.89-19.84Q110.08-19.84 110.14-19.68L110.14-19.68L110.14-19.68Q110.21-19.52 110.21-19.46L110.21-19.46L110.21-19.46Q110.21-19.01 109.70-18.91L109.70-18.91L109.70-18.91Q109.18-18.82 107.84-18.75L107.84-18.75L107.84-18.75Q107.14-18.69 106.37-18.43L106.37-18.43L106.37-18.43Q105.60-18.18 104.83-17.79L104.83-17.79L104.83-17.79Q101.25-15.74 99.49-14.59L99.49-14.59L99.49-14.59Q97.73-13.44 95.94-11.46L95.94-11.46L95.94-11.46Q95.23-10.69 94.08-8.70L94.08-8.70L94.08-8.70Q93.63-8.26 93.15-6.37L93.15-6.37L93.15-6.37Q92.67-4.48 92.67-4.03L92.67-4.03L92.67-4.03Q92.61-3.84 92.42-3.30L92.42-3.30L92.42-3.30Q92.22-2.75 91.84-2.24L91.84-2.24L91.84-2.24Q91.07-1.22 90.56-1.22L90.56-1.22L90.56-1.22Q89.98-1.22 89.02-2.24L89.02-2.24ZM115.26-0.96L115.26-0.96Q114.50-0.96 114.05-1.22L114.05-1.22L114.05-1.22Q113.60-1.47 112.77-2.18L112.77-2.18L112.77-2.18Q110.66-4.42 110.66-6.27L110.66-6.27L110.66-6.27Q110.66-6.72 110.72-6.91L110.72-6.91L110.72-6.91Q110.91-7.36 110.88-7.81L110.88-7.81L110.88-7.81Q110.85-8.26 110.85-8.38L110.85-8.38L110.85-8.38Q110.59-8.64 110.59-8.74L110.59-8.74L110.59-8.74Q110.59-8.83 110.72-8.93L110.72-8.93L110.72-8.93Q110.85-9.02 110.91-9.15L110.91-9.15L110.91-9.15Q111.30-9.15 111.17-9.86L111.17-9.86L111.17-9.86Q111.04-10.37 111.68-12.13L111.68-12.13L111.68-12.13Q112.32-13.89 113.28-15.36L113.28-15.36L113.28-15.36Q113.98-16.51 115.36-18.24L115.36-18.24L115.36-18.24Q116.74-19.97 117.82-20.86L117.82-20.86L117.82-20.86Q119.36-22.21 120.58-22.85L120.58-22.85L120.58-22.85Q121.79-23.49 123.26-23.81L123.26-23.81L123.26-23.81Q124.54-24.13 124.99-24.13L124.99-24.13L124.99-24.13Q125.44-24.13 125.79-23.90L125.79-23.90L125.79-23.90Q126.14-23.68 126.72-23.10L126.72-23.10L126.72-23.10Q128.45-22.34 129.12-21.15L129.12-21.15L129.12-21.15Q129.79-19.97 129.79-17.47L129.79-17.47L129.79-17.47Q129.79-13.31 126.40-8.45L126.40-8.45L126.40-8.45Q124.93-6.34 123.65-5.22L123.65-5.22L123.65-5.22Q122.37-4.10 120.26-2.82L120.26-2.82L120.26-2.82Q118.91-1.86 117.79-1.44L117.79-1.44L117.79-1.44Q116.67-1.02 115.26-0.96L115.26-0.96ZM121.41-7.74L121.41-7.74Q122.94-9.47 123.87-11.01L123.87-11.01L123.87-11.01Q124.80-12.54 125.63-14.91L125.63-14.91L125.63-14.91Q125.95-16 125.95-17.54L125.95-17.54L125.95-17.54Q125.95-19.46 125.44-19.71L125.44-19.71L125.44-19.71Q124.80-20.03 124.16-20.03L124.16-20.03L124.16-20.03Q122.75-20.03 121.22-18.75L121.22-18.75L121.22-18.75Q119.36-17.15 117.89-14.82L117.89-14.82L117.89-14.82Q116.42-12.48 114.88-9.02L114.88-9.02L114.88-9.02Q114.24-7.68 114.24-6.40L114.24-6.40L114.24-6.40Q114.24-5.44 114.72-4.86L114.72-4.86L114.72-4.86Q115.20-4.29 116.03-4.29L116.03-4.29L116.03-4.29Q118.14-4.29 121.41-7.74L121.41-7.74ZM151.55 1.22L151.55 1.22Q151.55 1.41 151.10 1.41L151.10 1.41L151.10 1.41Q150.72 1.41 150.24 1.22L150.24 1.22L150.24 1.22Q149.76 1.02 149.44 0.64L149.44 0.64L149.44 0.64Q148.99 0.26 148.77 0L148.77 0L148.77 0Q148.54-0.26 148.54-0.64L148.54-0.64L148.54-0.64Q148.54-1.15 148.93-2.30L148.93-2.30L148.93-2.30Q149.44-4.61 150.82-8.90L150.82-8.90L150.82-8.90Q152.19-13.18 153.28-15.36L153.28-15.36L153.28-15.36Q153.73-16.13 153.98-16.96L153.98-16.96L153.98-16.96Q154.24-17.79 154.30-18.05L154.30-18.05L154.30-18.05Q154.62-19.20 154.69-19.39L154.69-19.39L154.62-20.03L154.62-20.03Q154.62-20.29 154.75-20.54L154.75-20.54L154.75-20.54Q154.88-20.80 155.20-21.12L155.20-21.12L155.20-21.12Q156.10-21.89 157.12-24.13L157.12-24.13L159.55-31.10L160.32-33.28L160.32-33.28Q160.38-33.54 160.58-34.18L160.58-34.18L160.58-34.18Q160.77-34.82 160.77-35.07L160.77-35.07L160.77-35.07Q160.77-35.33 160.64-35.33L160.64-35.33L160.64-35.33Q160.13-35.20 158.59-35.14L158.59-35.14L158.59-35.14Q157.82-35.01 157.44-34.98L157.44-34.98L157.44-34.98Q157.06-34.94 156.86-34.88L156.86-34.88L156.42-34.88L156.42-34.88Q155.20-34.88 155.20-35.78L155.20-35.78L155.20-35.78Q155.33-36.80 155.94-37.47L155.94-37.47L155.94-37.47Q156.54-38.14 157.50-38.21L157.50-38.21L160.00-38.78L160.00-38.78Q160.58-38.91 161.57-39.14L161.57-39.14L161.57-39.14Q162.56-39.36 162.94-39.23L162.94-39.23L162.94-39.23Q163.78-39.81 163.78-40.13L163.78-40.13L163.78-40.13Q163.78-40.45 164.10-40.64L164.10-40.64L164.10-40.64Q164.42-40.83 164.86-40.83L164.86-40.83L164.86-40.83Q165.76-40.83 166.14-40.26L166.14-40.26L166.14-40.26Q166.40-39.87 167.23-39.87L167.23-39.87L167.23-39.87Q168.58-39.87 171.71-40.58L171.71-40.58L171.71-40.58Q172.22-40.64 173.47-40.74L173.47-40.74L173.47-40.74Q174.72-40.83 175.55-40.83L175.55-40.83L175.55-40.83Q176.70-40.83 177.41-40.64L177.41-40.64L177.41-40.64Q177.98-40.77 178.43-40.77L178.43-40.77L178.43-40.77Q178.88-40.77 179.20-40.83L179.20-40.83L179.20-40.83Q180.29-40.83 180.54-41.02L180.54-41.02L180.54-41.02Q181.12-40.90 181.86-40.80L181.86-40.80L181.86-40.80Q182.59-40.70 182.91-40.58L182.91-40.58L182.91-40.58Q183.23-40.45 183.49-40.26L183.49-40.26L183.49-40.26Q183.68-40 183.68-39.81L183.68-39.81L183.68-39.81Q183.68-39.62 183.62-39.55L183.62-39.55L183.49-39.62L183.49-39.62Q183.55-39.62 183.71-39.52L183.71-39.52L183.71-39.52Q183.87-39.42 184.06-39.23L184.06-39.23L184.06-39.23Q185.02-38.72 184.70-37.76L184.70-37.76L184.70-37.76Q184.64-37.38 184.42-37.22L184.42-37.22L184.42-37.22Q184.19-37.06 183.36-37.02L183.36-37.02L183.36-37.02Q182.53-36.99 181.18-37.06L181.18-37.06L181.18-37.06Q178.75-37.38 176.96-37.38L176.96-37.38L176.96-37.38Q174.27-37.38 169.60-36.74L169.60-36.74L169.60-36.74Q168.45-36.67 167.46-36.42L167.46-36.42L167.46-36.42Q166.46-36.16 166.21-36.10L166.21-36.10L166.21-36.10Q165.89-36.10 165.25-35.14L165.25-35.14L165.25-35.14Q164.61-34.18 164.10-32.70L164.10-32.70L164.10-32.70Q163.71-32.13 162.75-29.66L162.75-29.66L162.75-29.66Q161.79-27.20 161.47-26.43L161.47-26.43L161.47-26.43Q160.06-22.72 159.87-22.40L159.87-22.40L159.87-22.40Q160.64-22.14 162.94-22.14L162.94-22.14L162.94-22.14Q166.27-22.14 171.78-22.66L171.78-22.66L171.78-22.66Q174.72-23.23 175.17-23.04L175.17-23.04L175.17-23.04Q175.55-22.78 175.84-22.08L175.84-22.08L175.84-22.08Q176.13-21.38 176.13-20.80L176.13-20.80L176.13-20.80Q176.13-20.48 176.00-20.22L176.00-20.22L176.00-20.22Q175.81-19.78 174.62-19.52L174.62-19.52L174.62-19.52Q173.44-19.26 170.43-18.94L170.43-18.94L170.43-18.94Q167.62-18.69 162.24-18.69L162.24-18.69L162.24-18.69Q159.42-18.69 158.91-18.82L158.91-18.82L158.91-18.82Q158.78-18.75 158.56-18.43L158.56-18.43L158.56-18.43Q158.34-18.11 158.34-17.66L158.34-17.66L158.34-17.66Q157.18-15.62 154.94-9.73L154.94-9.73L154.94-9.73Q152.70-3.84 152.70-2.69L152.70-2.69L152.70-2.69Q152.26-1.54 152.00-0.06L152.00-0.06L152.00-0.06Q151.94 0.19 151.81 0.64L151.81 0.64L151.81 0.64Q151.68 1.09 151.55 1.22L151.55 1.22ZM179.33-2.24L179.33-2.24Q178.82-2.62 178.62-2.94L178.62-2.94L178.62-2.94Q178.43-3.26 178.43-3.90L178.43-3.90L178.43-3.90Q178.43-4.48 178.50-4.86L178.50-4.86L178.50-4.86Q178.69-7.04 179.46-9.92L179.46-9.92L179.78-11.20L179.78-11.20Q179.97-12.80 182.02-17.92L182.02-17.92L182.02-17.92Q184.06-23.04 185.34-24.90L185.34-24.90L185.34-24.90Q185.86-25.22 186.43-25.22L186.43-25.22L186.43-25.22Q187.26-25.22 187.84-24.64L187.84-24.64L187.84-24.64Q188.22-24.38 188.22-23.68L188.22-23.68L188.22-23.68Q188.22-23.04 187.74-21.79L187.74-21.79L187.74-21.79Q187.26-20.54 186.11-18.11L186.11-18.11L186.11-18.11Q185.86-17.60 185.25-16.19L185.25-16.19L185.25-16.19Q184.64-14.78 184.64-14.53L184.64-14.53L184.64-14.53Q184.64-14.40 184.70-14.40L184.70-14.40L184.70-14.40Q184.83-14.40 184.96-14.50L184.96-14.50L184.96-14.50Q185.09-14.59 185.22-14.66L185.22-14.66L185.22-14.66Q185.92-15.87 188.64-17.98L188.64-17.98L188.64-17.98Q191.36-20.10 192.38-20.61L192.38-20.61L192.38-20.61Q192.83-20.86 193.54-21.12L193.54-21.12L193.54-21.12Q194.24-21.38 194.50-21.50L194.50-21.50L194.50-21.50Q195.52-22.02 196.93-22.02L196.93-22.02L196.93-22.02Q197.82-22.02 198.50-21.73L198.50-21.73L198.50-21.73Q199.17-21.44 199.42-20.86L199.42-20.86L199.42-20.86Q199.49-20.42 199.78-20.16L199.78-20.16L199.78-20.16Q200.06-19.90 200.19-19.84L200.19-19.84L200.19-19.84Q200.38-19.84 200.45-19.68L200.45-19.68L200.45-19.68Q200.51-19.52 200.51-19.46L200.51-19.46L200.51-19.46Q200.51-19.01 200.00-18.91L200.00-18.91L200.00-18.91Q199.49-18.82 198.14-18.75L198.14-18.75L198.14-18.75Q197.44-18.69 196.67-18.43L196.67-18.43L196.67-18.43Q195.90-18.18 195.14-17.79L195.14-17.79L195.14-17.79Q191.55-15.74 189.79-14.59L189.79-14.59L189.79-14.59Q188.03-13.44 186.24-11.46L186.24-11.46L186.24-11.46Q185.54-10.69 184.38-8.70L184.38-8.70L184.38-8.70Q183.94-8.26 183.46-6.37L183.46-6.37L183.46-6.37Q182.98-4.48 182.98-4.03L182.98-4.03L182.98-4.03Q182.91-3.84 182.72-3.30L182.72-3.30L182.72-3.30Q182.53-2.75 182.14-2.24L182.14-2.24L182.14-2.24Q181.38-1.22 180.86-1.22L180.86-1.22L180.86-1.22Q180.29-1.22 179.33-2.24L179.33-2.24ZM205.57-0.96L205.57-0.96Q204.80-0.96 204.35-1.22L204.35-1.22L204.35-1.22Q203.90-1.47 203.07-2.18L203.07-2.18L203.07-2.18Q200.96-4.42 200.96-6.27L200.96-6.27L200.96-6.27Q200.96-6.72 201.02-6.91L201.02-6.91L201.02-6.91Q201.22-7.36 201.18-7.81L201.18-7.81L201.18-7.81Q201.15-8.26 201.15-8.38L201.15-8.38L201.15-8.38Q200.90-8.64 200.90-8.74L200.90-8.74L200.90-8.74Q200.90-8.83 201.02-8.93L201.02-8.93L201.02-8.93Q201.15-9.02 201.22-9.15L201.22-9.15L201.22-9.15Q201.60-9.15 201.47-9.86L201.47-9.86L201.47-9.86Q201.34-10.37 201.98-12.13L201.98-12.13L201.98-12.13Q202.62-13.89 203.58-15.36L203.58-15.36L203.58-15.36Q204.29-16.51 205.66-18.24L205.66-18.24L205.66-18.24Q207.04-19.97 208.13-20.86L208.13-20.86L208.13-20.86Q209.66-22.21 210.88-22.85L210.88-22.85L210.88-22.85Q212.10-23.49 213.57-23.81L213.57-23.81L213.57-23.81Q214.85-24.13 215.30-24.13L215.30-24.13L215.30-24.13Q215.74-24.13 216.10-23.90L216.10-23.90L216.10-23.90Q216.45-23.68 217.02-23.10L217.02-23.10L217.02-23.10Q218.75-22.34 219.42-21.15L219.42-21.15L219.42-21.15Q220.10-19.97 220.10-17.47L220.10-17.47L220.10-17.47Q220.10-13.31 216.70-8.45L216.70-8.45L216.70-8.45Q215.23-6.34 213.95-5.22L213.95-5.22L213.95-5.22Q212.67-4.10 210.56-2.82L210.56-2.82L210.56-2.82Q209.22-1.86 208.10-1.44L208.10-1.44L208.10-1.44Q206.98-1.02 205.57-0.96L205.57-0.96ZM211.71-7.74L211.71-7.74Q213.25-9.47 214.18-11.01L214.18-11.01L214.18-11.01Q215.10-12.54 215.94-14.91L215.94-14.91L215.94-14.91Q216.26-16 216.26-17.54L216.26-17.54L216.26-17.54Q216.26-19.46 215.74-19.71L215.74-19.71L215.74-19.71Q215.10-20.03 214.46-20.03L214.46-20.03L214.46-20.03Q213.06-20.03 211.52-18.75L211.52-18.75L211.52-18.75Q209.66-17.15 208.19-14.82L208.19-14.82L208.19-14.82Q206.72-12.48 205.18-9.02L205.18-9.02L205.18-9.02Q204.54-7.68 204.54-6.40L204.54-6.40L204.54-6.40Q204.54-5.44 205.02-4.86L205.02-4.86L205.02-4.86Q205.50-4.29 206.34-4.29L206.34-4.29L206.34-4.29Q208.45-4.29 211.71-7.74L211.71-7.74ZM246.40-2.94L246.40-2.94Q245.12-2.94 244.29-3.49L244.29-3.49L244.29-3.49Q243.46-4.03 242.88-5.31L242.88-5.31L242.88-5.31Q242.30-7.36 242.30-9.41L242.30-9.41L242.30-9.41Q242.30-10.37 242.50-10.75L242.50-10.75L242.50-10.75Q242.75-11.01 242.72-11.87L242.72-11.87L242.72-11.87Q242.69-12.74 242.69-13.12L242.69-13.12L242.69-13.12Q242.62-14.59 241.79-14.59L241.79-14.59L241.79-14.59Q241.22-14.59 240.51-14.14L240.51-14.14L240.51-14.14Q236.93-11.90 234.50-10.30L234.50-10.30L234.50-10.30Q232.06-8.70 229.82-6.72L229.82-6.72L229.82-6.72Q228.93-5.70 228.48-4.93L228.48-4.93L228.48-4.93Q228.03-4.16 227.84-3.87L227.84-3.87L227.84-3.87Q227.65-3.58 227.33-3.58L227.33-3.58L227.33-3.58Q226.94-3.46 226.82-3.46L226.82-3.46L226.82-3.46Q226.50-3.46 226.05-3.81L226.05-3.81L226.05-3.81Q225.60-4.16 225.47-4.29L225.47-4.29L225.47-4.29Q225.22-4.54 224.64-5.15L224.64-5.15L224.64-5.15Q224.06-5.76 224.00-6.02L224.00-6.02L224.00-6.02Q224.00-6.53 224.42-8.38L224.42-8.38L224.42-8.38Q224.83-10.24 225.09-10.75L225.09-10.75L225.09-10.75Q225.28-10.75 225.66-11.55L225.66-11.55L225.66-11.55Q226.05-12.35 226.37-12.80L226.37-12.80L226.37-12.80Q226.56-13.76 228.03-17.22L228.03-17.22L228.03-17.22Q228.93-18.75 229.28-19.78L229.28-19.78L229.28-19.78Q229.63-20.80 229.76-22.34L229.76-22.34L229.76-22.46L229.76-22.46Q229.76-22.72 229.95-22.88L229.95-22.88L229.95-22.88Q230.14-23.04 230.34-23.04L230.34-23.04L230.34-23.04Q230.78-23.36 231.17-23.36L231.17-23.36L231.17-23.36Q232.00-23.36 232.83-22.34L232.83-22.34L232.83-22.34Q233.79-21.12 233.79-19.78L233.79-19.78L233.79-19.78Q233.79-18.11 231.68-14.53L231.68-14.53L231.68-14.53Q231.49-14.08 231.14-13.25L231.14-13.25L231.14-13.25Q230.78-12.42 230.78-12.10L230.78-12.10L234.37-14.53L234.37-14.53Q234.88-15.10 237.12-16.58L237.12-16.58L237.12-16.58Q239.36-18.05 240.26-18.24L240.26-18.24L240.26-18.24Q241.79-18.94 242.18-18.94L242.18-18.94L242.18-18.94Q242.94-18.94 244.26-17.79L244.26-17.79L244.26-17.79Q245.57-16.64 245.82-15.87L245.82-15.87L245.82-15.87Q245.82-15.17 245.95-14.85L245.95-14.85L245.95-14.85Q246.27-13.57 246.27-11.84L246.27-11.84L246.27-11.84Q246.27-10.69 246.11-9.76L246.11-9.76L246.11-9.76Q245.95-8.83 245.70-8.70L245.70-8.70L245.70-8.70Q245.70-8.64 245.76-8.51L245.76-8.51L245.76-8.51Q245.82-8.38 246.02-8.38L246.02-8.38L246.02-8.06L246.02-8.06Q245.50-8.06 245.89-6.98L245.89-6.98L245.89-6.98Q246.27-5.89 246.91-5.31L246.91-5.31L246.91-5.31Q247.55-4.67 247.55-4.03L247.55-4.03L247.55-4.03Q247.55-3.26 246.40-2.94L246.40-2.94ZM256.96-0.45L256.96-0.45Q255.94-0.64 254.88-1.82L254.88-1.82L254.88-1.82Q253.82-3.01 253.50-4.03L253.50-4.03L253.50-4.03Q253.50-4.16 253.38-4.32L253.38-4.32L253.38-4.32Q253.25-4.48 253.18-4.54L253.18-4.54L253.18-4.54Q252.93-4.74 252.93-6.66L252.93-6.66L252.93-6.66Q252.93-8.19 253.09-9.86L253.09-9.86L253.09-9.86Q253.25-11.52 253.50-12.54L253.50-12.54L254.66-15.94L255.55-18.50L257.28-22.21L254.72-22.91L254.72-22.91Q254.27-22.98 253.98-23.36L253.98-23.36L253.98-23.36Q253.70-23.74 253.70-24.06L253.70-24.06L253.70-24.06Q253.70-24.58 254.24-25.31L254.24-25.31L254.24-25.31Q254.78-26.05 255.10-26.05L255.10-26.05L255.10-26.05Q255.30-25.98 256.13-25.98L256.13-25.98L256.13-25.98Q258.05-25.98 259.01-26.18L259.01-26.18L259.01-26.18Q259.65-26.43 259.90-27.20L259.90-27.20L259.90-27.20Q260.16-27.71 260.51-28.48L260.51-28.48L260.51-28.48Q260.86-29.25 261.18-29.89L261.18-29.89L261.18-29.89Q261.38-30.27 261.79-31.07L261.79-31.07L261.79-31.07Q262.21-31.87 262.85-32.90L262.85-32.90L262.85-32.90Q262.98-33.09 263.42-33.82L263.42-33.82L263.42-33.82Q263.87-34.56 264.51-35.07L264.51-35.07L264.51-35.07Q264.96-35.52 265.60-35.52L265.60-35.52L265.60-35.52Q266.24-35.52 267.26-34.69L267.26-34.69L267.26-34.69Q267.39-34.50 267.62-34.18L267.62-34.18L267.62-34.18Q267.84-33.86 267.84-33.60L267.84-33.60L267.84-33.60Q267.84-33.34 267.33-32.51L267.33-32.51L267.33-32.51Q266.94-31.74 266.59-31.14L266.59-31.14L266.59-31.14Q266.24-30.53 265.98-30.08L265.98-30.08L265.98-30.08Q265.22-28.80 264.90-28.16L264.90-28.16L264.90-28.16Q264.26-27.33 264.26-26.88L264.26-26.88L264.26-26.88Q264.26-26.43 265.09-26.43L265.09-26.43L265.09-26.43Q265.98-26.43 268.10-26.82L268.10-26.82L268.10-26.82Q268.99-26.94 269.31-26.94L269.31-26.94L269.31-26.94Q271.55-26.94 271.74-25.09L271.74-25.09L271.74-25.09Q271.81-24.70 271.81-24.19L271.81-24.19L271.81-24.19Q271.81-23.30 271.20-23.10L271.20-23.10L271.20-23.10Q270.59-22.91 268.48-22.91L268.48-22.91L268.48-22.91Q266.43-22.59 264.26-22.59L264.26-22.59L264.26-22.59Q263.87-22.59 263.39-22.56L263.39-22.56L263.39-22.56Q262.91-22.53 262.40-22.40L262.40-22.40L262.40-22.40Q261.89-22.27 261.66-22.02L261.66-22.02L261.66-22.02Q261.44-21.76 261.18-21.18L261.18-21.18L261.18-21.18Q260.99-20.99 260.29-19.71L260.29-19.71L260.29-19.71Q259.39-17.86 259.14-17.47L259.14-17.47L259.14-17.47Q257.41-12.35 256.58-6.98L256.58-6.98L256.58-6.98Q256.45-5.95 256.45-5.70L256.45-5.70L256.45-5.70Q256.45-4.74 257.09-4.35L257.09-4.35L257.09-4.35Q257.73-3.97 259.26-3.97L259.26-3.97L259.26-3.97Q261.44-3.97 263.04-4.42L263.04-4.42L263.04-4.42Q264.96-5.25 265.92-5.82L265.92-5.82L265.92-5.82Q266.50-6.14 266.98-6.43L266.98-6.43L266.98-6.43Q267.46-6.72 267.65-6.85L267.65-6.85L267.65-6.85Q267.84-7.23 268.10-7.23L268.10-7.23L268.10-7.23Q268.61-7.23 268.99-6.21L268.99-6.21L268.99-6.21Q268.99-5.18 268.54-4.42L268.54-4.42L268.54-4.42Q268.10-3.65 266.30-2.62L266.30-2.62L266.30-2.62Q262.59-0.26 258.88-0.26L258.88-0.26L258.88-0.26Q257.86-0.26 256.96-0.45L256.96-0.45ZM284.35-2.24L284.35-2.24Q282.75-0.83 280.51-0.83L280.51-0.83L280.51-0.83Q278.91-0.83 277.47-1.60L277.47-1.60L277.47-1.60Q276.03-2.37 275.07-3.71L275.07-3.71L275.07-3.71Q274.24-4.74 273.86-6.02L273.86-6.02L273.86-6.02Q273.47-7.30 273.47-9.15L273.47-9.15L273.47-9.15Q273.47-9.79 273.60-11.71L273.60-11.71L273.60-11.71Q273.79-14.08 275.17-16.64L275.17-16.64L275.17-16.64Q276.54-19.20 278.59-21.22L278.59-21.22L278.59-21.22Q280.64-23.23 282.62-24L282.62-24L282.62-24Q283.65-24.64 284.48-24.64L284.48-24.64L284.48-24.64Q284.93-24.64 285.38-24.58L285.38-24.58L285.38-24.58Q285.82-24.51 286.34-24.45L286.34-24.45L286.34-24.45Q287.74-24.26 288.48-23.90L288.48-23.90L288.48-23.90Q289.22-23.55 289.73-22.85L289.73-22.85L289.73-22.85Q291.33-21.25 291.33-19.14L291.33-19.14L291.33-19.14Q291.07-17.60 289.34-15.62L289.34-15.62L289.34-15.62Q287.62-13.63 285.18-12.42L285.18-12.42L285.18-12.42Q284.03-12.03 282.56-12.03L282.56-12.03L282.56-12.03Q280.58-12.03 279.36-12.86L279.36-12.86L279.36-12.86Q278.78-13.06 278.46-13.06L278.46-13.06L278.46-13.06Q277.89-13.06 277.60-12.29L277.60-12.29L277.60-12.29Q277.31-11.52 277.06-9.47L277.06-9.47L277.06-9.47Q276.99-9.02 276.99-8.19L276.99-8.19L276.99-8.19Q276.99-4.93 279.17-4.61L279.17-4.61L279.17-4.61Q280.64-4.29 281.28-4.29L281.28-4.29L281.28-4.29Q282.05-4.29 283.01-4.80L283.01-4.80L284.22-5.50L284.22-5.50Q284.61-5.70 284.93-6.02L284.93-6.02L284.93-6.02Q285.25-6.34 285.50-6.59L285.50-6.59L285.50-6.59Q285.63-6.72 285.89-7.01L285.89-7.01L285.89-7.01Q286.14-7.30 286.37-7.39L286.37-7.39L286.37-7.39Q286.59-7.49 286.78-7.49L286.78-7.49L286.78-7.49Q287.04-7.49 287.36-7.20L287.36-7.20L287.36-7.20Q287.68-6.91 287.87-6.78L287.87-6.78L287.87-6.78Q288.45-6.78 288.13-5.98L288.13-5.98L288.13-5.98Q287.81-5.18 286.75-4.13L286.75-4.13L286.75-4.13Q285.70-3.07 284.35-2.24L284.35-2.24ZM284.29-15.81L284.29-15.81Q285.38-16.26 286.50-17.41L286.50-17.41L286.50-17.41Q287.62-18.56 287.62-19.33L287.62-19.33L287.62-19.33Q287.62-20.10 287.04-20.61L287.04-20.61L287.04-20.61Q286.46-21.12 285.44-21.12L285.44-21.12L285.44-21.12Q284.67-21.12 284.29-20.99L284.29-20.99L284.29-20.99Q283.39-20.74 282.18-19.62L282.18-19.62L282.18-19.62Q280.96-18.50 280.06-17.34L280.06-17.34L280.06-17.34Q279.17-16.19 279.36-16L279.36-16L279.36-16Q279.68-15.42 281.86-15.42L281.86-15.42L281.86-15.42Q283.33-15.42 284.29-15.81L284.29-15.81ZM316.54-2.94L316.54-2.94Q315.26-2.94 314.43-3.49L314.43-3.49L314.43-3.49Q313.60-4.03 313.02-5.31L313.02-5.31L313.02-5.31Q312.45-7.36 312.45-9.41L312.45-9.41L312.45-9.41Q312.45-10.37 312.64-10.75L312.64-10.75L312.64-10.75Q312.90-11.01 312.86-11.87L312.86-11.87L312.86-11.87Q312.83-12.74 312.83-13.12L312.83-13.12L312.83-13.12Q312.77-14.59 311.94-14.59L311.94-14.59L311.94-14.59Q311.36-14.59 310.66-14.14L310.66-14.14L310.66-14.14Q307.07-11.90 304.64-10.30L304.64-10.30L304.64-10.30Q302.21-8.70 299.97-6.72L299.97-6.72L299.97-6.72Q299.07-5.70 298.62-4.93L298.62-4.93L298.62-4.93Q298.18-4.16 297.98-3.87L297.98-3.87L297.98-3.87Q297.79-3.58 297.47-3.58L297.47-3.58L297.47-3.58Q297.09-3.46 296.96-3.46L296.96-3.46L296.96-3.46Q296.64-3.46 296.19-3.81L296.19-3.81L296.19-3.81Q295.74-4.16 295.62-4.29L295.62-4.29L295.62-4.29Q295.36-4.54 294.78-5.15L294.78-5.15L294.78-5.15Q294.21-5.76 294.14-6.02L294.14-6.02L294.14-6.02Q294.14-6.53 294.56-8.38L294.56-8.38L294.56-8.38Q294.98-10.24 295.23-10.75L295.23-10.75L295.23-10.75Q295.42-10.75 295.81-11.55L295.81-11.55L295.81-11.55Q296.19-12.35 296.51-12.80L296.51-12.80L296.51-12.80Q296.70-13.76 298.18-17.22L298.18-17.22L298.18-17.22Q299.07-18.75 299.42-19.78L299.42-19.78L299.42-19.78Q299.78-20.80 299.90-22.34L299.90-22.34L299.90-22.46L299.90-22.46Q299.90-22.72 300.10-22.88L300.10-22.88L300.10-22.88Q300.29-23.04 300.48-23.04L300.48-23.04L300.48-23.04Q300.93-23.36 301.31-23.36L301.31-23.36L301.31-23.36Q302.14-23.36 302.98-22.34L302.98-22.34L302.98-22.34Q303.94-21.12 303.94-19.78L303.94-19.78L303.94-19.78Q303.94-18.11 301.82-14.53L301.82-14.53L301.82-14.53Q301.63-14.08 301.28-13.25L301.28-13.25L301.28-13.25Q300.93-12.42 300.93-12.10L300.93-12.10L304.51-14.53L304.51-14.53Q305.02-15.10 307.26-16.58L307.26-16.58L307.26-16.58Q309.50-18.05 310.40-18.24L310.40-18.24L310.40-18.24Q311.94-18.94 312.32-18.94L312.32-18.94L312.32-18.94Q313.09-18.94 314.40-17.79L314.40-17.79L314.40-17.79Q315.71-16.64 315.97-15.87L315.97-15.87L315.97-15.87Q315.97-15.17 316.10-14.85L316.10-14.85L316.10-14.85Q316.42-13.57 316.42-11.84L316.42-11.84L316.42-11.84Q316.42-10.69 316.26-9.76L316.26-9.76L316.26-9.76Q316.10-8.83 315.84-8.70L315.84-8.70L315.84-8.70Q315.84-8.64 315.90-8.51L315.90-8.51L315.90-8.51Q315.97-8.38 316.16-8.38L316.16-8.38L316.16-8.06L316.16-8.06Q315.65-8.06 316.03-6.98L316.03-6.98L316.03-6.98Q316.42-5.89 317.06-5.31L317.06-5.31L317.06-5.31Q317.70-4.67 317.70-4.03L317.70-4.03L317.70-4.03Q317.70-3.26 316.54-2.94L316.54-2.94ZM339.46 1.22L339.46 1.22Q337.86 1.60 337.28-0.19L337.28-0.19L337.28-0.19Q336.38-2.69 336.38-5.44L336.38-5.44L336.38-5.44Q336.38-6.21 336.45-6.53L336.45-6.53L336.58-7.87L334.08-5.89L334.08-5.89Q332.03-4.10 330.02-3.20L330.02-3.20L330.02-3.20Q328.00-2.30 326.34-2.30L326.34-2.30L326.34-2.30Q325.25-2.50 324.26-3.23L324.26-3.23L324.26-3.23Q323.26-3.97 322.82-4.99L322.82-4.99L322.82-4.99Q322.56-5.50 322.56-6.53L322.56-6.53L322.56-6.53Q322.56-8.90 323.84-12.13L323.84-12.13L323.84-12.13Q325.12-15.36 327.04-17.47L327.04-17.47L327.04-17.47Q329.79-21.63 333.18-21.63L333.18-21.63L333.18-21.63Q334.78-21.63 336.38-20.67L336.38-20.67L336.38-20.67Q337.98-20.03 338.24-20.03L338.24-20.03L338.24-20.03Q338.62-20.03 338.82-20.35L338.82-20.35L338.82-20.35Q339.01-20.67 339.20-21.50L339.20-21.50L339.20-21.50Q339.90-24.45 340.54-26.43L340.54-26.43L340.54-26.43Q341.95-30.66 342.98-33.22L342.98-33.22L342.98-33.22Q344.00-35.78 345.47-38.85L345.47-38.85L345.47-38.85Q346.11-40.19 346.59-40.61L346.59-40.61L346.59-40.61Q347.07-41.02 347.65-40.96L347.65-40.96L347.65-40.96Q349.06-40.96 349.82-39.04L349.82-39.04L349.82-39.04Q350.02-38.59 350.02-38.14L350.02-38.14L350.02-38.14Q350.02-37.70 349.63-36.93L349.63-36.93L349.63-36.93Q347.97-34.05 345.54-27.52L345.54-27.52L345.54-27.52Q343.10-20.99 341.76-16.19L341.76-16.19L341.76-16.19Q341.18-14.08 340.77-10.11L340.77-10.11L340.77-10.11Q340.35-6.14 340.35-3.52L340.35-3.52L340.35-3.52Q340.35-2.37 340.48-1.86L340.48-1.86L340.48-1.86Q340.80-0.77 340.80 0.06L340.80 0.06L340.80 0.06Q340.80 0.70 340.48 0.93L340.48 0.93L340.48 0.93Q340.16 1.15 339.46 1.22L339.46 1.22ZM328.64-5.89L328.64-5.89Q330.11-6.21 332.22-7.81L332.22-7.81L332.22-7.81Q332.61-8.06 334.08-9.15L334.08-9.15L334.08-9.15Q335.55-10.24 336.32-11.46L336.32-11.46L336.32-11.46Q337.09-12.67 337.41-14.21L337.41-14.21L337.41-14.21Q337.47-15.36 337.18-16.10L337.18-16.10L337.18-16.10Q336.90-16.83 336.06-17.54L336.06-17.54L336.06-17.54Q335.42-17.98 334.46-17.98L334.46-17.98L334.46-17.98Q332.74-17.98 331.26-16.58L331.26-16.58L331.26-16.58Q329.54-15.04 328.19-12.61L328.19-12.61L328.19-12.61Q326.85-10.18 326.14-6.98L326.14-6.98L326.14-6.98Q325.95-5.76 327.42-5.76L327.42-5.76L327.42-5.76Q328.19-5.76 328.64-5.89L328.64-5.89Z" fill="url(#editing-outline-gradient)"></path></g></g><style>text {
  font-size: 64px;
  font-family: Arial Black;
  dominant-baseline: central;
  text-anchor: middle;
}</style></svg>