<svg xmlns="http://www.w3.org/2000/svg" viewBox="150 50 275 400">
  <g id="freepik--Device--inject-27">
    <path
      d="M363.66,66.61H199.22a16.79,16.79,0,0,0-16.64,17V422.1A16.8,16.8,0,0,0,199.22,439H363.66a16.81,16.81,0,0,0,16.66-16.94V83.56A16.8,16.8,0,0,0,363.66,66.61Zm6.26,345c0,8.91-6.67,16.12-14.9,16.12H207.89c-8.25,0-14.92-7.21-14.92-16.12V96.39c0-18.15,6.67-19,14.92-19h29.47c1.71,0,3.11,2,3.11,4.36v1c0,5.65,3.09,5.67,6.9,5.67h68.15c3.83,0,6.9,0,6.9-5.67v-1c0-2.41,1.38-4.36,3.12-4.36H355c8.23,0,14.9,2.42,14.9,19Z"
      style="fill:#263238"></path>
    <path
      d="M290.74,81.36H272.15A1.15,1.15,0,0,1,271,80.22h0a1.15,1.15,0,0,1,1.15-1.15h18.59a1.15,1.15,0,0,1,1.15,1.15h0A1.15,1.15,0,0,1,290.74,81.36Z"
      style="fill:#fff"></path>
    <path
      d="M369.92,96.39V411.63c0,8.91-6.67,16.12-14.9,16.12H207.9c-8.25,0-14.93-7.21-14.93-16.12V96.39c0-18.15,6.68-19,14.93-19h29.46c1.71,0,3.11,2,3.11,4.36v1c0,5.65,3.1,5.67,6.9,5.67h68.15c3.84,0,6.9,0,6.9-5.67v-1c0-2.41,1.38-4.36,3.12-4.36H355C363.25,77.35,369.92,79.77,369.92,96.39Z"
      style="fill:#fff"></path>
    <polygon points="208.7 106.78 205.55 103.83 208.7 100.89 209.19 101.41 206.59 103.83 209.19 106.26 208.7 106.78"
             style="fill:#dbdbdb"></polygon>
    <path d="M349,102.81a1,1,0,1,1-1,1A1,1,0,0,1,349,102.81Z" style="fill:#dbdbdb"></path>
    <path d="M352.66,102.81a1,1,0,1,1-1,1A1,1,0,0,1,352.66,102.81Z" style="fill:#dbdbdb"></path>
    <path d="M356.32,102.81a1,1,0,1,1-1,1A1,1,0,0,1,356.32,102.81Z" style="fill:#dbdbdb"></path>
    <g id="freepik--u5Zjqx--inject-27">
      <path
        d="M232.28,84.43l-.29.29c-.05,0-.11.1-.16.16a3.87,3.87,0,0,0-5.49,0l-.15-.16-.28-.28h0l0,0c.12-.11.23-.22.36-.32a4.19,4.19,0,0,1,.83-.53,4.32,4.32,0,0,1,1.1-.37l.56-.07h.48c.12,0,.25,0,.37,0a4,4,0,0,1,1,.24,4.66,4.66,0,0,1,.68.32,4.12,4.12,0,0,1,.66.46c.1.08.2.18.3.27Z"
        style="fill:#c7c7c7"></path>
      <path d="M227.24,85.77l-.45-.44a3.12,3.12,0,0,1,1.83-.92,3.21,3.21,0,0,1,2.76.91l-.45.45a2.62,2.62,0,0,0-3.69,0Z"
            style="fill:#c7c7c7"></path>
      <path d="M230.48,86.22l-.45.45a1.34,1.34,0,0,0-1.89,0l-.44-.44A2,2,0,0,1,230.48,86.22Z" style="fill:#c7c7c7"></path>
      <path d="M229.49,87.08a.41.41,0,0,1-.81,0,.41.41,0,1,1,.81,0Z" style="fill:#c7c7c7"></path>
    </g>
    <path d="M204.51,85.29a1.17,1.17,0,1,1,1.17,1.18A1.17,1.17,0,0,1,204.51,85.29Z" style="fill:#c7c7c7"></path>
    <path d="M208.2,85.29a1.18,1.18,0,1,1,1.18,1.18A1.18,1.18,0,0,1,208.2,85.29Z" style="fill:#c7c7c7"></path>
    <path d="M211.9,85.29a1.17,1.17,0,1,1,1.17,1.18A1.17,1.17,0,0,1,211.9,85.29Z" style="fill:#c7c7c7"></path>
    <path d="M215.59,85.29a1.18,1.18,0,1,1,1.17,1.18A1.18,1.18,0,0,1,215.59,85.29Z" style="fill:#c7c7c7"></path>
    <path d="M219.28,85.29a1.18,1.18,0,1,1,1.18,1.18A1.18,1.18,0,0,1,219.28,85.29Z" style="fill:#c7c7c7"></path>
    <path d="M356.65,87.86h-9.56V83.42h9.56Zm-9.06-.5h8.56V83.92h-8.56Z" style="fill:#c7c7c7"></path>
    <rect x="347.89" y="84.18" width="6.15" height="2.92" style="fill:#c7c7c7"></rect>
    <rect x="356.65" y="84.46" width="0.85" height="2.37" style="fill:#c7c7c7"></rect>
    <path d="M276.76,151.06a5.25,5.25,0,1,0,5.25-5.25A5.25,5.25,0,0,0,276.76,151.06Z" style="fill:#5AA2DD"></path>
    <path d="M251.59,157.85a5,5,0,1,0,5-5A5,5,0,0,0,251.59,157.85Z" style="fill:#5AA2DD;opacity:0.9"></path>
    <path d="M235.94,175.18a4.74,4.74,0,1,0,4.74-4.73A4.74,4.74,0,0,0,235.94,175.18Z" style="fill:#5AA2DD;opacity:0.8"></path>
    <circle cx="235.24" cy="198.46" r="4.47" style="fill:#5AA2DD;opacity:0.7000000000000001"></circle>
    <path d="M236.05,220.43a4.22,4.22,0,1,0,4.22-4.22A4.22,4.22,0,0,0,236.05,220.43Z"
          style="fill:#5AA2DD;opacity:0.6000000000000001"></path>
    <path d="M251.71,238.4a4,4,0,1,0,4-4A4,4,0,0,0,251.71,238.4Z" style="fill:#5AA2DD;opacity:0.5"></path>
    <path d="M278.47,245.91a3.7,3.7,0,1,0,3.7-3.7A3.7,3.7,0,0,0,278.47,245.91Z" style="fill:#5AA2DD;opacity:0.4"></path>
    <path d="M305.57,237.82a3.45,3.45,0,1,0,3.45-3.44A3.44,3.44,0,0,0,305.57,237.82Z"
          style="fill:#5AA2DD;opacity:0.30000000000000004"></path>
    <path d="M321.12,219a3.19,3.19,0,1,0,3.19-3.18A3.19,3.19,0,0,0,321.12,219Z" style="fill:#5AA2DD;opacity:0.2"></path>
    <path d="M326.27,198a2.93,2.93,0,1,0,2.93-2.93A2.93,2.93,0,0,0,326.27,198Z" style="fill:#5AA2DD;opacity:0.1"></path>
    <circle cx="321.62" cy="170.98" r="2.67" style="fill:#5AA2DD;opacity:0.05"></circle>
    <path d="M301,155.8a2.42,2.42,0,1,0,2.42-2.42A2.41,2.41,0,0,0,301,155.8Z" style="fill:#5AA2DD;opacity:0.01"></path>
    <path
      d="M281.09,209.66A11.69,11.69,0,1,0,269.34,198,11.69,11.69,0,0,0,281.09,209.66ZM270.76,198a10.26,10.26,0,1,1,10.32,10.2A10.27,10.27,0,0,1,270.76,198Zm10.33,11.63A11.69,11.69,0,1,0,269.34,198,11.69,11.69,0,0,0,281.09,209.66ZM270.76,198a10.26,10.26,0,1,1,10.32,10.2A10.27,10.27,0,0,1,270.76,198Zm10.33,11.63A11.69,11.69,0,1,0,269.34,198,11.69,11.69,0,0,0,281.09,209.66ZM270.76,198a10.26,10.26,0,1,1,10.32,10.2A10.27,10.27,0,0,1,270.76,198Zm10.4,24.57a24.63,24.63,0,1,0-24.77-24.48A24.63,24.63,0,0,0,281.16,222.6Zm-13.64-24.55a13.5,13.5,0,1,1,13.58,13.42A13.52,13.52,0,0,1,267.52,198.05Zm1.82,0A11.69,11.69,0,1,0,281,186.28,11.7,11.7,0,0,0,269.34,198Zm1.42,0a10.26,10.26,0,1,1,10.32,10.2A10.27,10.27,0,0,1,270.76,198Zm10.33,11.63A11.69,11.69,0,1,0,269.34,198,11.69,11.69,0,0,0,281.09,209.66ZM270.76,198a10.26,10.26,0,1,1,10.32,10.2A10.27,10.27,0,0,1,270.76,198Zm10.33,11.63A11.69,11.69,0,1,0,269.34,198,11.69,11.69,0,0,0,281.09,209.66ZM270.76,198a10.26,10.26,0,1,1,10.32,10.2A10.27,10.27,0,0,1,270.76,198Z"
      style="fill:#5AA2DD"></path>
    <polygon points="276.15 174.39 285.62 174.33 285.06 167.63 276.63 167.68 276.15 174.39" style="fill:#5AA2DD"></polygon>
    <polygon points="294.19 177.47 300.93 184.13 305.27 178.99 299.28 173.07 294.19 177.47" style="fill:#5AA2DD"></polygon>
    <polygon points="304.77 192.41 304.83 201.88 311.53 201.32 311.48 192.9 304.77 192.41" style="fill:#5AA2DD"></polygon>
    <polygon points="301.69 210.46 295.03 217.2 300.17 221.54 306.09 215.54 301.69 210.46" style="fill:#5AA2DD"></polygon>
    <polygon points="286.75 221.04 277.28 221.1 277.84 227.8 286.26 227.75 286.75 221.04" style="fill:#5AA2DD"></polygon>
    <polygon points="268.7 217.96 261.96 211.3 257.62 216.44 263.62 222.36 268.7 217.96" style="fill:#5AA2DD"></polygon>
    <polygon points="258.12 203.01 258.06 193.54 251.36 194.11 251.41 202.53 258.12 203.01" style="fill:#5AA2DD"></polygon>
    <polygon points="261.2 184.97 267.86 178.23 262.73 173.89 256.81 179.88 261.2 184.97" style="fill:#5AA2DD"></polygon>
    <path d="M340.46,279.23h-118v-9.84h118Zm-117.53-.5H340v-8.84h-117Z" style="fill:#5AA2DD"></path>
    <rect x="224.85" y="271.42" width="4.23" height="5.79" style="fill:#5AA2DD"></rect>
    <rect x="230.69" y="271.42" width="4.23" height="5.79" style="fill:#5AA2DD"></rect>
    <rect x="236.54" y="271.42" width="4.23" height="5.79" style="fill:#5AA2DD"></rect>
    <rect x="242.38" y="271.42" width="4.23" height="5.79" style="fill:#5AA2DD"></rect>
    <rect x="248.23" y="271.42" width="4.23" height="5.79" style="fill:#5AA2DD"></rect>
    <rect x="254.07" y="271.42" width="4.23" height="5.79" style="fill:#5AA2DD"></rect>
    <rect x="259.92" y="271.42" width="4.23" height="5.79" style="fill:#5AA2DD"></rect>
    <rect x="265.76" y="271.42" width="4.23" height="5.79" style="fill:#5AA2DD"></rect>
    <rect x="271.61" y="271.42" width="4.23" height="5.79" style="fill:#5AA2DD"></rect>
    <rect x="277.45" y="271.42" width="4.23" height="5.79" style="fill:#5AA2DD"></rect>
    <rect x="283.3" y="271.42" width="4.23" height="5.79" style="fill:#5AA2DD"></rect>
    <rect x="289.14" y="271.42" width="4.23" height="5.79" style="fill:#5AA2DD"></rect>
    <path
      d="M326.77,272.9l-1.47,3.48a.31.31,0,0,1-.3.19l-.12,0a.34.34,0,0,1-.18-.43l1.27-3h-1.52a.33.33,0,0,1-.32-.33.32.32,0,0,1,.32-.32h2.08l.12.05,0,0,0,0,0,0s0,0,0,0,0,0,0,0l0,0v0l0,0v.13Z"
      style="fill:#5AA2DD"></path>
    <path
      d="M327.47,274.51a2.46,2.46,0,0,1,.4-1.4,1.23,1.23,0,0,1,2.17,0,2.46,2.46,0,0,1,.4,1.4,2.49,2.49,0,0,1-.4,1.41,1.23,1.23,0,0,1-2.17,0A2.49,2.49,0,0,1,327.47,274.51Zm2.32,0a1.88,1.88,0,0,0-.29-1,.66.66,0,0,0-.54-.36.7.7,0,0,0-.56.36,2,2,0,0,0-.28,1,1.94,1.94,0,0,0,.28,1,.72.72,0,0,0,.56.37.68.68,0,0,0,.54-.37A1.86,1.86,0,0,0,329.79,274.51Z"
      style="fill:#5AA2DD"></path>
    <path
      d="M331.58,273.47h0a1,1,0,0,1,1-1,1,1,0,0,1,1,1h0a1,1,0,0,1-1,1.05A1,1,0,0,1,331.58,273.47Zm1.41,0h0c0-.33-.19-.6-.45-.6s-.44.27-.44.59h0c0,.34.19.6.45.6S333,273.79,333,273.47Zm-.74,2.75,2.7-3.69a.21.21,0,0,1,.2-.1.23.23,0,0,1,.23.23.25.25,0,0,1-.05.15l-2.7,3.68a.23.23,0,0,1-.2.11.23.23,0,0,1-.23-.23A.25.25,0,0,1,332.25,276.22Zm1.81-.64h0a1,1,0,1,1,1.94,0v0a1,1,0,1,1-1.94,0Zm1.42,0h0c0-.33-.19-.6-.46-.6s-.44.27-.44.58v0c0,.33.19.6.46.6S335.48,275.89,335.48,275.58Z"
      style="fill:#5AA2DD"></path>
    <path d="M252.3,290.08a.49.49,0,0,1,.49-.5.51.51,0,0,1,.51.5v5.31a.51.51,0,0,1-.51.5.49.49,0,0,1-.49-.5Z" style="fill:#c7c7c7"></path>
    <path
      d="M256,295.39a.51.51,0,0,1-.49.5.49.49,0,0,1-.49-.5v-5.23h0a.47.47,0,0,1,.2-.41.48.48,0,0,1,.68.11l2.91,4v-3.71a.49.49,0,0,1,.48-.49.51.51,0,0,1,.5.49v5.23a.51.51,0,0,1-.5.5.53.53,0,0,1-.37-.18l0-.06-2.88-4Z"
      style="fill:#c7c7c7"></path>
    <path
      d="M261.72,294.32a.46.46,0,0,1,.66-.06,2.94,2.94,0,0,0,1.72.69,1.91,1.91,0,0,0,1.12-.33.83.83,0,0,0,.39-.65.55.55,0,0,0-.08-.29,1,1,0,0,0-.27-.27A3.7,3.7,0,0,0,264,293h0a5,5,0,0,1-1.17-.35,1.92,1.92,0,0,1-.83-.71,1.3,1.3,0,0,1-.21-.73,1.69,1.69,0,0,1,.72-1.32,2.7,2.7,0,0,1,1.56-.48,3.59,3.59,0,0,1,2,.72.47.47,0,0,1,.13.64.46.46,0,0,1-.64.14,2.59,2.59,0,0,0-1.45-.58,1.71,1.71,0,0,0-1,.31.72.72,0,0,0-.34.57.41.41,0,0,0,.06.25.89.89,0,0,0,.24.23,3.18,3.18,0,0,0,1.13.4h0a5.31,5.31,0,0,1,1.24.38,2.12,2.12,0,0,1,.9.74,1.53,1.53,0,0,1,.21.77,1.73,1.73,0,0,1-.77,1.39,2.78,2.78,0,0,1-1.66.52,3.91,3.91,0,0,1-2.31-.9A.48.48,0,0,1,261.72,294.32Z"
      style="fill:#c7c7c7"></path>
    <path
      d="M271.64,290.58h-1.43v4.81a.5.5,0,1,1-1,0v-4.81h-1.43a.49.49,0,0,1-.49-.5.49.49,0,0,1,.49-.5h3.85a.49.49,0,0,1,.49.5A.5.5,0,0,1,271.64,290.58Z"
      style="fill:#c7c7c7"></path>
    <path
      d="M276,294.4h-2.19l-.44,1.17a.51.51,0,0,1-.47.32.47.47,0,0,1-.17,0,.52.52,0,0,1-.3-.65l2-5.3a.5.5,0,0,1,.48-.32.51.51,0,0,1,.48.32l2,5.3a.51.51,0,0,1-.29.65.47.47,0,0,1-.17,0,.48.48,0,0,1-.46-.32Zm-.37-1-.73-1.93-.73,1.93Z"
      style="fill:#c7c7c7"></path>
    <path
      d="M278.58,295.39v-5.31a.49.49,0,0,1,.49-.5.5.5,0,0,1,.5.5v4.81H282a.5.5,0,0,1,.5.5.51.51,0,0,1-.5.5h-2.94A.49.49,0,0,1,278.58,295.39Z"
      style="fill:#c7c7c7"></path>
    <path d="M283.64,295.39v-5.31a.5.5,0,0,1,1,0v4.81h2.44a.51.51,0,0,1,.5.5.51.51,0,0,1-.5.5h-2.94A.5.5,0,0,1,283.64,295.39Z"
          style="fill:#c7c7c7"></path>
    <path d="M288.82,290.08a.49.49,0,0,1,.49-.5.51.51,0,0,1,.51.5v5.31a.51.51,0,0,1-.51.5.49.49,0,0,1-.49-.5Z" style="fill:#c7c7c7"></path>
    <path
      d="M292.49,295.39a.51.51,0,0,1-.49.5.49.49,0,0,1-.49-.5v-5.23h0a.47.47,0,0,1,.2-.41.48.48,0,0,1,.68.11l2.91,4v-3.71a.49.49,0,0,1,.48-.49.51.51,0,0,1,.5.49v5.23a.48.48,0,0,1-.86.32l-.05-.06-2.88-4Z"
      style="fill:#c7c7c7"></path>
    <path
      d="M297.71,292.65a3.32,3.32,0,0,1,5.37-2.54.51.51,0,0,1,.1.73.53.53,0,0,1-.73.08,2.3,2.3,0,0,0-1.42-.49,2.22,2.22,0,0,0-1.62.66,2.14,2.14,0,0,0,0,3.11,2.22,2.22,0,0,0,1.62.66,2.51,2.51,0,0,0,1.24-.34v-1.24H301a.52.52,0,0,1-.52-.51.51.51,0,0,1,.52-.5h1.79a.5.5,0,0,1,.52.5v2a.66.66,0,0,1,0,.15.09.09,0,0,1,0,0h0a.4.4,0,0,1-.18.21,3.24,3.24,0,0,1-2,.71A3.28,3.28,0,0,1,297.71,292.65Z"
      style="fill:#c7c7c7"></path>
    <path d="M305.78,294.61a.67.67,0,1,1,0,1.34.67.67,0,0,1,0-1.34Z" style="fill:#c7c7c7"></path>
    <path d="M307.85,294.61a.67.67,0,1,1,0,1.34.67.67,0,0,1,0-1.34Z" style="fill:#c7c7c7"></path>
    <path d="M309.92,294.61a.67.67,0,1,1,0,1.34.67.67,0,0,1,0-1.34Z" style="fill:#c7c7c7"></path>
  </g>
</svg>
