<svg xmlns="http://www.w3.org/2000/svg" viewBox="250 25 240 400">
  <g id="freepik--Device--inject-20">
    <path
      d="M446,42.29H282.09a16.73,16.73,0,0,0-16.58,16.89V396.51a16.75,16.75,0,0,0,16.58,16.89H446a16.76,16.76,0,0,0,16.6-16.89V59.18A16.75,16.75,0,0,0,446,42.29Zm6.22,343.79c0,8.88-6.65,16.07-14.85,16.07H290.73c-8.22,0-14.87-7.19-14.87-16.07V72c0-18.09,6.65-19,14.87-19H320.1c1.71,0,3.1,1.94,3.1,4.34v1c0,5.63,3.09,5.65,6.87,5.65H398c3.82,0,6.88,0,6.88-5.65v-1c0-2.4,1.38-4.34,3.11-4.34h29.36c8.2,0,14.85,2.41,14.85,19Z"
      style="fill:#263238"></path>
    <path
      d="M452.18,72V386.08c0,8.88-6.65,16.07-14.85,16.07H290.73c-8.22,0-14.87-7.19-14.87-16.07V72c0-18.09,6.65-19,14.87-19H320.1c1.71,0,3.1,1.94,3.1,4.34v1c0,5.63,3.09,5.65,6.87,5.65H398c3.82,0,6.88,0,6.88-5.65v-1c0-2.4,1.38-4.34,3.11-4.34h29.36C445.53,53,452.18,55.4,452.18,72Z"
      style="fill:#fff"></path>
    <g id="freepik--u5Zjqx--inject-20">
      <path
        d="M315,60.05c-.09.09-.19.18-.28.28l-.16.16a3.87,3.87,0,0,0-5.47,0l-.16-.16-.28-.28h0l0,0,.35-.31a4.41,4.41,0,0,1,1.93-.9c.19,0,.37-.05.55-.08H312l.38,0a4.39,4.39,0,0,1,1,.25,4.6,4.6,0,0,1,.68.31,5.06,5.06,0,0,1,.65.46l.3.27Z"
        style="fill:#c7c7c7"></path>
      <path d="M310,61.38l-.45-.44a3.18,3.18,0,0,1,1.82-.92,3.23,3.23,0,0,1,2.75.91l-.45.45a2.6,2.6,0,0,0-3.67,0Z"
            style="fill:#c7c7c7"></path>
      <path d="M313.24,61.83l-.45.45a1.28,1.28,0,0,0-.94-.39,1.29,1.29,0,0,0-.94.39l-.44-.45A2,2,0,0,1,313.24,61.83Z"
            style="fill:#c7c7c7"></path>
      <path d="M312.26,62.68a.41.41,0,1,1-.41-.4A.4.4,0,0,1,312.26,62.68Z" style="fill:#c7c7c7"></path>
    </g>
    <path d="M287.36,60.9a1.17,1.17,0,1,1,1.17,1.17A1.17,1.17,0,0,1,287.36,60.9Z" style="fill:#c7c7c7"></path>
    <path d="M291,60.9a1.17,1.17,0,1,1,1.17,1.17A1.17,1.17,0,0,1,291,60.9Z" style="fill:#c7c7c7"></path>
    <path d="M294.72,60.9a1.17,1.17,0,1,1,1.17,1.17A1.17,1.17,0,0,1,294.72,60.9Z" style="fill:#c7c7c7"></path>
    <path d="M298.41,60.9a1.17,1.17,0,1,1,1.16,1.17A1.16,1.16,0,0,1,298.41,60.9Z" style="fill:#c7c7c7"></path>
    <path d="M302.09,60.9a1.17,1.17,0,1,1,1.16,1.17A1.16,1.16,0,0,1,302.09,60.9Z" style="fill:#c7c7c7"></path>
    <path d="M439,63.46h-9.51V59.05H439Zm-9-.49h8.55V59.53h-8.55Z" style="fill:#c7c7c7"></path>
    <rect x="430.24" y="59.8" width="6.13" height="2.91" style="fill:#c7c7c7"></rect>
    <rect x="438.97" y="60.07" width="0.85" height="2.36" style="fill:#c7c7c7"></rect>
    <path
      d="M373.29,57H354.77a1.15,1.15,0,0,1-1.15-1.15h0a1.15,1.15,0,0,1,1.15-1.14h18.52a1.15,1.15,0,0,1,1.15,1.14h0A1.15,1.15,0,0,1,373.29,57Z"
      style="fill:#fff"></path>
    <polygon
      points="298.79 383.66 297.93 383.66 297.93 387.62 296.31 387.62 296.31 385.61 293.46 385.61 293.46 387.62 291.85 387.62 291.85 383.66 290.99 383.66 294.89 379.63 298.79 383.66"
      style="fill:#ebebeb"></polygon>
    <rect x="429.06" y="379.63" width="9.4" height="1.34" style="fill:#ebebeb"></rect>
    <rect x="429.06" y="382.96" width="9.4" height="1.34" style="fill:#ebebeb"></rect>
    <rect x="429.06" y="386.28" width="9.4" height="1.34" style="fill:#ebebeb"></rect>
    <polygon points="367.49 383.77 364.82 386.62 362.14 383.77 362.62 383.32 364.82 385.67 367.02 383.32 367.49 383.77"
             style="fill:#ebebeb"></polygon>
    <path
      d="M364.82,389.57a4.86,4.86,0,1,1,4.85-4.86A4.87,4.87,0,0,1,364.82,389.57Zm0-9.07a4.22,4.22,0,1,0,4.21,4.21A4.22,4.22,0,0,0,364.82,380.5Z"
      style="fill:#ebebeb"></path>
    <rect x="285.2" y="76.4" width="157.66" height="46.02" style="fill:#FFC727"></rect>
    <polygon points="294.17 91.19 288.96 86.3 294.17 81.42 294.98 82.28 290.69 86.3 294.98 90.32 294.17 91.19" style="fill:#fff"></polygon>
    <path d="M439.11,83.26a1,1,0,1,1-1-1A1,1,0,0,1,439.11,83.26Z" style="fill:#fff"></path>
    <path d="M439.11,86.91a1,1,0,1,1-1-1A1,1,0,0,1,439.11,86.91Z" style="fill:#fff"></path>
    <path d="M439.11,90.55a1,1,0,1,1-1-1A1,1,0,0,1,439.11,90.55Z" style="fill:#fff"></path>
    <path d="M302.09,86.3c18.14-.67,36.41-.67,54.56,0-18.15.67-36.42.67-54.56,0Z" style="fill:#fff"></path>
    <path d="M302.09,91.19c12.25-.33,25.73-.33,38,0-12.25.33-25.73.32-38,0Z" style="fill:#fff"></path>
    <path d="M320.13,108c28.12-.31,59.67-.31,87.78,0-28.11.31-59.66.31-87.78,0Z" style="fill:#fff"></path>
    <path d="M292.38,160.23c24.88-.18,49.77-.14,74.65-.21s49.77,0,74.66.21c-24.89.17-49.77.13-74.66.2S317.26,160.4,292.38,160.23Z"
          style="fill:#455a64"></path>
    <path d="M292.38,177c24.88-.17,49.77-.13,74.65-.2s49.77,0,74.66.2c-24.89.18-49.77.14-74.66.21S317.26,177.22,292.38,177Z"
          style="fill:#455a64"></path>
    <path d="M292.38,193.86c24.88-.17,49.77-.13,74.65-.2s49.77,0,74.66.2c-24.89.18-49.77.14-74.66.21S317.26,194,292.38,193.86Z"
          style="fill:#455a64"></path>
    <path
      d="M292.38,210.68c24.88-.17,49.77-.13,74.65-.2s49.77,0,74.66.2c-24.89.18-49.77.13-74.66.21C342.15,210.81,317.26,210.86,292.38,210.68Z"
      style="fill:#455a64"></path>
    <path
      d="M292.38,227.5c24.88-.18,49.77-.13,74.65-.2s49.77,0,74.66.2c-24.89.18-49.77.13-74.66.21C342.15,227.63,317.26,227.68,292.38,227.5Z"
      style="fill:#455a64"></path>
    <path
      d="M322.44,149.29c.22,15.72.16,31.43.26,47.15-.09,15.71,0,31.43-.26,47.14-.22-15.71-.16-31.43-.25-47.14C322.28,180.72,322.22,165,322.44,149.29Z"
      style="fill:#455a64"></path>
    <path
      d="M348.26,149.29c.22,15.72.16,31.43.26,47.15-.1,15.71,0,31.43-.26,47.14-.22-15.71-.16-31.43-.25-47.14C348.1,180.72,348,165,348.26,149.29Z"
      style="fill:#455a64"></path>
    <path
      d="M374.08,149.29c.22,15.72.16,31.43.25,47.15-.09,15.71,0,31.43-.25,47.14-.22-15.71-.16-31.43-.26-47.14C373.92,180.72,373.86,165,374.08,149.29Z"
      style="fill:#455a64"></path>
    <path
      d="M399.9,149.29c.22,15.72.16,31.43.25,47.15-.09,15.71,0,31.43-.25,47.14-.22-15.71-.17-31.43-.26-47.14C399.74,180.72,399.68,165,399.9,149.29Z"
      style="fill:#455a64"></path>
    <path
      d="M425.72,149.29c.22,15.72.16,31.43.25,47.15-.09,15.71,0,31.43-.25,47.14-.22-15.71-.17-31.43-.26-47.14C425.55,180.72,425.5,165,425.72,149.29Z"
      style="fill:#455a64"></path>
    <path
      d="M296.14,215.3c4.56,0,7.28-17.08,13.73-17.08s7.14,12.46,12.57,12.46,5.27-21.89,12.57-21.89,5.61,8.88,13.25,8.88S353,177,361,177s4.76,28.42,13.08,28.42c5.27,0,7.3-9,13.59-9,4.16,0,6.61,4.51,12.05,4.51s6.63-17.36,13.43-17.36,7.57,10.27,12.57,10.27,6.79-16.82,16-16.82v66.54H296.14Z"
      style="fill:#FFC727;opacity:0.5"></path>
    <path
      d="M296.14,215.3c4.56,0,7.28-17.08,13.73-17.08s7.14,12.46,12.57,12.46,5.27-21.89,12.57-21.89,5.61,8.88,13.25,8.88S353,177,361,177s4.76,28.42,13.08,28.42c5.27,0,7.3-9,13.59-9,4.16,0,6.61,4.51,12.05,4.51s6.63-17.36,13.43-17.36,7.57,10.27,12.57,10.27,6.79-16.82,16-16.82v66.54H296.14Z"
      style="fill:#FFC727;opacity:0.30000000000000004"></path>
    <path
      d="M296.14,216.12v-1.64c1.38,0,3.28-4,4.67-6.9,2.38-5,4.85-10.18,9.06-10.18,4,0,6.05,3.79,7.82,7.13,1.39,2.62,2.82,5.33,4.75,5.33,1.7,0,3.17-5.26,4.25-9.1,1.76-6.29,3.58-12.79,8.32-12.79,4.23,0,5.89,2.55,7.35,4.8s2.65,4.08,5.9,4.08c2.94,0,4.09-4.82,5.2-9.48,1.31-5.48,2.66-11.15,7.54-11.15s6.08,7.14,7.39,14.7c1.06,6.11,2.37,13.72,5.69,13.72,2,0,3.6-1.88,5.32-3.86,2.08-2.42,4.45-5.17,8.27-5.17,2.29,0,4.08,1.12,5.81,2.21s3.69,2.31,6.24,2.31c1.89,0,3.61-4.13,5-7.45,2-4.87,4.13-9.91,8.44-9.91s6.38,3.28,8.24,6.17c1.36,2.11,2.64,4.1,4.33,4.1,1.44,0,3.06-3.19,4.5-6,2.45-4.82,5.5-10.81,11.47-10.81v1.65c-4.6,0-7.24,5.2-9.58,9.78-2,3.93-3.58,7-6.39,7s-4.49-2.43-6.14-5-3.4-5.27-6.43-5.27c-2.84,0-4.78,4.67-6.5,8.79-1.92,4.59-3.57,8.56-6.93,8.56s-5.5-1.41-7.49-2.65c-1.59-1-3-1.86-4.56-1.86-2.75,0-4.7,2.26-6.6,4.46s-3.94,4.56-7,4.56c-5.09,0-6.37-7.35-7.72-15.13-1-5.92-2.3-13.28-5.36-13.28s-4.44,5.21-5.53,9.81c-1.33,5.56-2.58,10.81-7.21,10.81s-6.2-2.63-7.71-5c-1.36-2.1-2.55-3.92-5.54-3.92s-4.89,6.38-6.33,11.52c-1.62,5.79-2.91,10.37-6.24,10.37s-4.9-3.07-6.63-6.33c-1.6-3-3.25-6.13-5.94-6.13s-5.21,5.06-7.15,9.12C300.6,212.61,298.93,216.12,296.14,216.12Z"
      style="fill:#FFC727"></path>
    <path d="M374.08,205.46v38.12H348.26V197.67C355.9,197.67,353,177,361,177S365.76,205.46,374.08,205.46Z"
          style="fill:#FFC727;opacity:0.5"></path>
    <circle cx="360.99" cy="176.51" r="4.09" style="fill:#263238"></circle>
    <path d="M363.33,176.51a2.34,2.34,0,1,1-2.34-2.34A2.34,2.34,0,0,1,363.33,176.51Z" style="fill:#FFC727"></path>
    <rect x="353.52" y="159.84" width="14.84" height="8.28" style="fill:#FFC727"></rect>
    <polygon points="358.98 168.12 362.89 168.12 360.94 170.93 358.98 168.12" style="fill:#FFC727"></polygon>
    <path d="M356.29,162.9a86.69,86.69,0,0,1,9.4,0,92.1,92.1,0,0,1-9.4,0Z" style="fill:#fff"></path>
    <path d="M356.29,164.5a86.69,86.69,0,0,1,9.4,0,89.31,89.31,0,0,1-9.4,0Z" style="fill:#fff"></path>
    <path
      d="M296.14,150.31c.17,15.55.31,31.09.32,46.64l.16,46.63-.48-.38,72.77.09,36.39.08,36.39.21-36.39.21-36.39.08-72.77.1h-.48v-.39l.16-46.63C295.83,181.4,296,165.86,296.14,150.31Z"
      style="fill:#455a64"></path>
    <path d="M303.93,250.56a34.66,34.66,0,0,1,10.37,0,35.33,35.33,0,0,1-10.37,0Z" style="fill:#dbdbdb"></path>
    <path d="M285.2,160.23a7.34,7.34,0,0,1,4.72,0,7.47,7.47,0,0,1-4.72,0Z" style="fill:#dbdbdb"></path>
    <path d="M285.2,177a7.47,7.47,0,0,1,4.72,0,7.34,7.34,0,0,1-4.72,0Z" style="fill:#dbdbdb"></path>
    <path d="M285.2,193.86a7.47,7.47,0,0,1,4.72,0,7.34,7.34,0,0,1-4.72,0Z" style="fill:#dbdbdb"></path>
    <path d="M285.2,210.68a7.47,7.47,0,0,1,4.72,0,7.34,7.34,0,0,1-4.72,0Z" style="fill:#dbdbdb"></path>
    <path d="M285.2,227.5a7.4,7.4,0,0,1,4.72,0,7.4,7.4,0,0,1-4.72,0Z" style="fill:#dbdbdb"></path>
    <path d="M329.37,250.56a34.6,34.6,0,0,1,10.36,0,35.27,35.27,0,0,1-10.36,0Z" style="fill:#dbdbdb"></path>
    <path d="M354.8,250.56a34.66,34.66,0,0,1,10.37,0,35.33,35.33,0,0,1-10.37,0Z" style="fill:#dbdbdb"></path>
    <path d="M380.23,250.56a34.66,34.66,0,0,1,10.37,0,35.33,35.33,0,0,1-10.37,0Z" style="fill:#dbdbdb"></path>
    <path d="M405.66,250.56a34.66,34.66,0,0,1,10.37,0,35.33,35.33,0,0,1-10.37,0Z" style="fill:#dbdbdb"></path>
    <path d="M431.1,250.56a34.66,34.66,0,0,1,10.37,0,35.33,35.33,0,0,1-10.37,0Z" style="fill:#dbdbdb"></path>
    <path d="M285.33,134.15c14.64-.68,29.39-.68,44,0-14.65.68-29.4.68-44,0Z" style="fill:#dbdbdb"></path>
    <path d="M285.33,138.78a193,193,0,0,1,28.25,0,195.86,195.86,0,0,1-28.25,0Z" style="fill:#dbdbdb"></path>
    <path d="M413.44,138.78a261,261,0,0,1,28.25,0,266.21,266.21,0,0,1-28.25,0Z" style="fill:#FFC727"></path>
    <path d="M286.31,266c14.8-.68,29.73-.68,44.54,0-14.82.68-29.74.68-44.54,0Z" style="fill:#263238"></path>
    <path d="M408.05,266q16.81-.75,33.64,0-16.81.76-33.64,0Z" style="fill:#FFC727"></path>
    <path d="M316.63,280a298.82,298.82,0,0,1,35,0,301,301,0,0,1-35,0Z" style="fill:#263238"></path>
    <path d="M316.63,285.13a211.53,211.53,0,0,1,29.36,0,211.53,211.53,0,0,1-29.36,0Z" style="fill:#263238"></path>
    <path
      d="M441.69,301.62c-.35-.34-156.08,1-155.72,0l0-27.32v-.38h.38L364,274c25.93.06,51.86,0,77.8.16,0,.09-.15,27.32-.11,27.43Zm0,0-.11-27.32c-25.19.46-51.89.09-77.58.26.35-.27-79.48.73-77.32-.26l0,27.32c-2.12-.93,155.52.29,155.05,0Z"
      style="fill:#dbdbdb"></path>
    <rect x="290.33" y="278.23" width="19.8" height="19.8" style="fill:#FFC727"></rect>
    <path d="M437.14,288.13a9.9,9.9,0,1,1-1.31-4.92A9.9,9.9,0,0,1,437.14,288.13Z" style="fill:#455a64"></path>
    <path d="M435.83,283.21l-8.59,4.92v-9.9A9.91,9.91,0,0,1,435.83,283.21Z" style="fill:#FFC727"></path>
    <circle cx="427.24" cy="288.13" r="6.85" style="fill:#fff"></circle>
    <path d="M316.63,315.11a301,301,0,0,1,35,0,301,301,0,0,1-35,0Z" style="fill:#263238"></path>
    <path d="M316.63,320.26a211.53,211.53,0,0,1,29.36,0,211.53,211.53,0,0,1-29.36,0Z" style="fill:#263238"></path>
    <path
      d="M441.69,336.75c-.35-.34-156.08,1-155.72,0l0-27.32v-.38h.38l77.69.11c25.93.06,51.86,0,77.8.16,0,.09-.15,27.32-.11,27.43Zm0,0-.11-27.32c-25.19.46-51.89.09-77.58.26.35-.27-79.48.73-77.32-.26l0,27.32c-2.12-.93,155.52.29,155.05,0Z"
      style="fill:#dbdbdb"></path>
    <rect x="290.33" y="313.36" width="19.8" height="19.8" style="fill:#455a64"></rect>
    <path d="M437.14,323.26a9.9,9.9,0,1,1-1.31-4.92A9.9,9.9,0,0,1,437.14,323.26Z" style="fill:#455a64"></path>
    <path d="M437.14,323.26a9.9,9.9,0,0,1-.11,1.45l-9.79-1.45v-9.9a9.9,9.9,0,0,1,9.9,9.9Z" style="fill:#FFC727"></path>
    <path d="M434.08,323.26a6.85,6.85,0,1,1-6.84-6.84A6.85,6.85,0,0,1,434.08,323.26Z" style="fill:#fff"></path>
    <path d="M316.63,350.24a301,301,0,0,1,35,0,301,301,0,0,1-35,0Z" style="fill:#263238"></path>
    <path d="M316.63,355.39a211.53,211.53,0,0,1,29.36,0,211.53,211.53,0,0,1-29.36,0Z" style="fill:#263238"></path>
    <path
      d="M441.69,371.88c-.35-.34-156.08,1-155.72,0l0-27.32v-.38h.38l77.69.11c25.93.06,51.86,0,77.8.16,0,.09-.15,27.32-.11,27.43Zm0,0-.11-27.32c-25.19.46-51.89.09-77.58.26.35-.27-79.48.73-77.32-.26l0,27.32c-2.12-.93,155.52.29,155.05,0Z"
      style="fill:#dbdbdb"></path>
    <rect x="290.33" y="348.49" width="19.8" height="19.8" style="fill:#FFC727"></rect>
    <path d="M437.14,358.39a9.89,9.89,0,0,1-6.35,9.24,9.78,9.78,0,0,1-3.55.66,9.9,9.9,0,1,1,9.9-9.9Z" style="fill:#455a64"></path>
    <path d="M437.14,358.39a9.89,9.89,0,0,1-6.35,9.24l-3.55-9.24v-9.9a9.9,9.9,0,0,1,9.9,9.9Z" style="fill:#FFC727"></path>
    <path d="M434.08,358.39a6.85,6.85,0,1,1-6.84-6.84A6.85,6.85,0,0,1,434.08,358.39Z" style="fill:#fff"></path>
  </g>
</svg>
